<?xml version="1.0" encoding="utf-8" standalone="no"?>
<!DOCTYPE svg PUBLIC "-//W3C//DTD SVG 1.1//EN"
  "http://www.w3.org/Graphics/SVG/1.1/DTD/svg11.dtd">
<svg xmlns:xlink="http://www.w3.org/1999/xlink" width="460.8pt" height="345.6pt" viewBox="0 0 460.8 345.6" xmlns="http://www.w3.org/2000/svg" version="1.1">
 <metadata>
  <rdf:RDF xmlns:dc="http://purl.org/dc/elements/1.1/" xmlns:cc="http://creativecommons.org/ns#" xmlns:rdf="http://www.w3.org/1999/02/22-rdf-syntax-ns#">
   <cc:Work>
    <dc:type rdf:resource="http://purl.org/dc/dcmitype/StillImage"/>
    <dc:date>2024-10-24T18:58:21.648075</dc:date>
    <dc:format>image/svg+xml</dc:format>
    <dc:creator>
     <cc:Agent>
      <dc:title>Matplotlib v3.9.2, https://matplotlib.org/</dc:title>
     </cc:Agent>
    </dc:creator>
   </cc:Work>
  </rdf:RDF>
 </metadata>
 <defs>
  <style type="text/css">*{stroke-linejoin: round; stroke-linecap: butt}</style>
 </defs>
 <g id="figure_1">
  <g id="patch_1">
   <path d="M 0 345.6 
L 460.8 345.6 
L 460.8 0 
L 0 0 
z
" style="fill: #ffffff"/>
  </g>
  <g id="axes_1">
   <g id="patch_2">
    <path d="M 57.6 307.584 
L 414.72 307.584 
L 414.72 41.472 
L 57.6 41.472 
z
" style="fill: #ffffff"/>
   </g>
   <g id="matplotlib.axis_1">
    <g id="xtick_1">
     <g id="line2d_1">
      <defs>
       <path id="md1215664dd" d="M 0 0 
L 0 3.5 
" style="stroke: #000000; stroke-width: 0.8"/>
      </defs>
      <g>
       <use xlink:href="#md1215664dd" x="57.6" y="307.584" style="stroke: #000000; stroke-width: 0.8"/>
      </g>
     </g>
     <g id="text_1">
      <!-- Γ -->
      <g transform="translate(54.814062 322.182437) scale(0.1 -0.1)">
       <defs>
        <path id="DejaVuSans-393" d="M 628 0 
L 628 4666 
L 3531 4666 
L 3531 4134 
L 1259 4134 
L 1259 0 
L 628 0 
z
" transform="scale(0.015625)"/>
       </defs>
       <use xlink:href="#DejaVuSans-393"/>
      </g>
     </g>
    </g>
    <g id="xtick_2">
     <g id="line2d_2">
      <g>
       <use xlink:href="#md1215664dd" x="138.123704" y="307.584" style="stroke: #000000; stroke-width: 0.8"/>
      </g>
     </g>
     <g id="text_2">
      <!-- X -->
      <g transform="translate(134.698704 322.182437) scale(0.1 -0.1)">
       <defs>
        <path id="DejaVuSans-58" d="M 403 4666 
L 1081 4666 
L 2241 2931 
L 3406 4666 
L 4084 4666 
L 2584 2425 
L 4184 0 
L 3506 0 
L 2194 1984 
L 872 0 
L 191 0 
L 1856 2491 
L 403 4666 
z
" transform="scale(0.015625)"/>
       </defs>
       <use xlink:href="#DejaVuSans-58"/>
      </g>
     </g>
    </g>
    <g id="xtick_3">
     <g id="line2d_3">
      <g>
       <use xlink:href="#md1215664dd" x="165.325722" y="307.584" style="stroke: #000000; stroke-width: 0.8"/>
      </g>
     </g>
     <g id="text_3">
      <!-- U|K -->
      <g transform="translate(156.703066 322.226187) scale(0.1 -0.1)">
       <defs>
        <path id="DejaVuSans-55" d="M 556 4666 
L 1191 4666 
L 1191 1831 
Q 1191 1081 1462 751 
Q 1734 422 2344 422 
Q 2950 422 3222 751 
Q 3494 1081 3494 1831 
L 3494 4666 
L 4128 4666 
L 4128 1753 
Q 4128 841 3676 375 
Q 3225 -91 2344 -91 
Q 1459 -91 1007 375 
Q 556 841 556 1753 
L 556 4666 
z
" transform="scale(0.015625)"/>
        <path id="DejaVuSans-7c" d="M 1344 4891 
L 1344 -1509 
L 813 -1509 
L 813 4891 
L 1344 4891 
z
" transform="scale(0.015625)"/>
        <path id="DejaVuSans-4b" d="M 628 4666 
L 1259 4666 
L 1259 2694 
L 3353 4666 
L 4166 4666 
L 1850 2491 
L 4331 0 
L 3500 0 
L 1259 2247 
L 1259 0 
L 628 0 
L 628 4666 
z
" transform="scale(0.015625)"/>
       </defs>
       <use xlink:href="#DejaVuSans-55"/>
       <use xlink:href="#DejaVuSans-7c" x="73.193359"/>
       <use xlink:href="#DejaVuSans-4b" x="106.884766"/>
      </g>
     </g>
    </g>
    <g id="xtick_4">
     <g id="line2d_4">
      <g>
       <use xlink:href="#md1215664dd" x="249.733154" y="307.584" style="stroke: #000000; stroke-width: 0.8"/>
      </g>
     </g>
     <g id="text_4">
      <!-- Γ -->
      <g transform="translate(246.947217 322.182437) scale(0.1 -0.1)">
       <use xlink:href="#DejaVuSans-393"/>
      </g>
     </g>
    </g>
    <g id="xtick_5">
     <g id="line2d_5">
      <g>
       <use xlink:href="#md1215664dd" x="318.653423" y="307.584" style="stroke: #000000; stroke-width: 0.8"/>
      </g>
     </g>
     <g id="text_5">
      <!-- L -->
      <g transform="translate(315.867485 322.182437) scale(0.1 -0.1)">
       <defs>
        <path id="DejaVuSans-4c" d="M 628 4666 
L 1259 4666 
L 1259 531 
L 3531 531 
L 3531 0 
L 628 0 
L 628 4666 
z
" transform="scale(0.015625)"/>
       </defs>
       <use xlink:href="#DejaVuSans-4c"/>
      </g>
     </g>
    </g>
    <g id="xtick_6">
     <g id="line2d_6">
      <g>
       <use xlink:href="#md1215664dd" x="374.927697" y="307.584" style="stroke: #000000; stroke-width: 0.8"/>
      </g>
     </g>
     <g id="text_6">
      <!-- W -->
      <g transform="translate(369.983947 322.182437) scale(0.1 -0.1)">
       <defs>
        <path id="DejaVuSans-57" d="M 213 4666 
L 850 4666 
L 1831 722 
L 2809 4666 
L 3519 4666 
L 4500 722 
L 5478 4666 
L 6119 4666 
L 4947 0 
L 4153 0 
L 3169 4050 
L 2175 0 
L 1381 0 
L 213 4666 
z
" transform="scale(0.015625)"/>
       </defs>
       <use xlink:href="#DejaVuSans-57"/>
      </g>
     </g>
    </g>
    <g id="xtick_7">
     <g id="line2d_7">
      <g>
       <use xlink:href="#md1215664dd" x="414.72" y="307.584" style="stroke: #000000; stroke-width: 0.8"/>
      </g>
     </g>
     <g id="text_7">
      <!-- X -->
      <g transform="translate(411.295 322.182437) scale(0.1 -0.1)">
       <use xlink:href="#DejaVuSans-58"/>
      </g>
     </g>
    </g>
   </g>
   <g id="matplotlib.axis_2">
    <g id="ytick_1">
     <g id="line2d_8">
      <defs>
       <path id="m3b3d8a8e2a" d="M 0 0 
L -3.5 0 
" style="stroke: #000000; stroke-width: 0.8"/>
      </defs>
      <g>
       <use xlink:href="#m3b3d8a8e2a" x="57.6" y="283.105054" style="stroke: #000000; stroke-width: 0.8"/>
      </g>
     </g>
     <g id="text_8">
      <!-- −20 -->
      <g transform="translate(29.495313 286.904273) scale(0.1 -0.1)">
       <defs>
        <path id="DejaVuSans-2212" d="M 678 2272 
L 4684 2272 
L 4684 1741 
L 678 1741 
L 678 2272 
z
" transform="scale(0.015625)"/>
        <path id="DejaVuSans-32" d="M 1228 531 
L 3431 531 
L 3431 0 
L 469 0 
L 469 531 
Q 828 903 1448 1529 
Q 2069 2156 2228 2338 
Q 2531 2678 2651 2914 
Q 2772 3150 2772 3378 
Q 2772 3750 2511 3984 
Q 2250 4219 1831 4219 
Q 1534 4219 1204 4116 
Q 875 4013 500 3803 
L 500 4441 
Q 881 4594 1212 4672 
Q 1544 4750 1819 4750 
Q 2544 4750 2975 4387 
Q 3406 4025 3406 3419 
Q 3406 3131 3298 2873 
Q 3191 2616 2906 2266 
Q 2828 2175 2409 1742 
Q 1991 1309 1228 531 
z
" transform="scale(0.015625)"/>
        <path id="DejaVuSans-30" d="M 2034 4250 
Q 1547 4250 1301 3770 
Q 1056 3291 1056 2328 
Q 1056 1369 1301 889 
Q 1547 409 2034 409 
Q 2525 409 2770 889 
Q 3016 1369 3016 2328 
Q 3016 3291 2770 3770 
Q 2525 4250 2034 4250 
z
M 2034 4750 
Q 2819 4750 3233 4129 
Q 3647 3509 3647 2328 
Q 3647 1150 3233 529 
Q 2819 -91 2034 -91 
Q 1250 -91 836 529 
Q 422 1150 422 2328 
Q 422 3509 836 4129 
Q 1250 4750 2034 4750 
z
" transform="scale(0.015625)"/>
       </defs>
       <use xlink:href="#DejaVuSans-2212"/>
       <use xlink:href="#DejaVuSans-32" x="83.789062"/>
       <use xlink:href="#DejaVuSans-30" x="147.412109"/>
      </g>
     </g>
    </g>
    <g id="ytick_2">
     <g id="line2d_9">
      <g>
       <use xlink:href="#m3b3d8a8e2a" x="57.6" y="252.339971" style="stroke: #000000; stroke-width: 0.8"/>
      </g>
     </g>
     <g id="text_9">
      <!-- −15 -->
      <g transform="translate(29.495313 256.13919) scale(0.1 -0.1)">
       <defs>
        <path id="DejaVuSans-31" d="M 794 531 
L 1825 531 
L 1825 4091 
L 703 3866 
L 703 4441 
L 1819 4666 
L 2450 4666 
L 2450 531 
L 3481 531 
L 3481 0 
L 794 0 
L 794 531 
z
" transform="scale(0.015625)"/>
        <path id="DejaVuSans-35" d="M 691 4666 
L 3169 4666 
L 3169 4134 
L 1269 4134 
L 1269 2991 
Q 1406 3038 1543 3061 
Q 1681 3084 1819 3084 
Q 2600 3084 3056 2656 
Q 3513 2228 3513 1497 
Q 3513 744 3044 326 
Q 2575 -91 1722 -91 
Q 1428 -91 1123 -41 
Q 819 9 494 109 
L 494 744 
Q 775 591 1075 516 
Q 1375 441 1709 441 
Q 2250 441 2565 725 
Q 2881 1009 2881 1497 
Q 2881 1984 2565 2268 
Q 2250 2553 1709 2553 
Q 1456 2553 1204 2497 
Q 953 2441 691 2322 
L 691 4666 
z
" transform="scale(0.015625)"/>
       </defs>
       <use xlink:href="#DejaVuSans-2212"/>
       <use xlink:href="#DejaVuSans-31" x="83.789062"/>
       <use xlink:href="#DejaVuSans-35" x="147.412109"/>
      </g>
     </g>
    </g>
    <g id="ytick_3">
     <g id="line2d_10">
      <g>
       <use xlink:href="#m3b3d8a8e2a" x="57.6" y="221.574888" style="stroke: #000000; stroke-width: 0.8"/>
      </g>
     </g>
     <g id="text_10">
      <!-- −10 -->
      <g transform="translate(29.495313 225.374107) scale(0.1 -0.1)">
       <use xlink:href="#DejaVuSans-2212"/>
       <use xlink:href="#DejaVuSans-31" x="83.789062"/>
       <use xlink:href="#DejaVuSans-30" x="147.412109"/>
      </g>
     </g>
    </g>
    <g id="ytick_4">
     <g id="line2d_11">
      <g>
       <use xlink:href="#m3b3d8a8e2a" x="57.6" y="190.809805" style="stroke: #000000; stroke-width: 0.8"/>
      </g>
     </g>
     <g id="text_11">
      <!-- −5 -->
      <g transform="translate(35.857813 194.609024) scale(0.1 -0.1)">
       <use xlink:href="#DejaVuSans-2212"/>
       <use xlink:href="#DejaVuSans-35" x="83.789062"/>
      </g>
     </g>
    </g>
    <g id="ytick_5">
     <g id="line2d_12">
      <g>
       <use xlink:href="#m3b3d8a8e2a" x="57.6" y="160.044722" style="stroke: #000000; stroke-width: 0.8"/>
      </g>
     </g>
     <g id="text_12">
      <!-- 0 -->
      <g transform="translate(44.2375 163.843941) scale(0.1 -0.1)">
       <use xlink:href="#DejaVuSans-30"/>
      </g>
     </g>
    </g>
    <g id="ytick_6">
     <g id="line2d_13">
      <g>
       <use xlink:href="#m3b3d8a8e2a" x="57.6" y="129.279639" style="stroke: #000000; stroke-width: 0.8"/>
      </g>
     </g>
     <g id="text_13">
      <!-- 5 -->
      <g transform="translate(44.2375 133.078858) scale(0.1 -0.1)">
       <use xlink:href="#DejaVuSans-35"/>
      </g>
     </g>
    </g>
    <g id="ytick_7">
     <g id="line2d_14">
      <g>
       <use xlink:href="#m3b3d8a8e2a" x="57.6" y="98.514556" style="stroke: #000000; stroke-width: 0.8"/>
      </g>
     </g>
     <g id="text_14">
      <!-- 10 -->
      <g transform="translate(37.875 102.313774) scale(0.1 -0.1)">
       <use xlink:href="#DejaVuSans-31"/>
       <use xlink:href="#DejaVuSans-30" x="63.623047"/>
      </g>
     </g>
    </g>
    <g id="ytick_8">
     <g id="line2d_15">
      <g>
       <use xlink:href="#m3b3d8a8e2a" x="57.6" y="67.749473" style="stroke: #000000; stroke-width: 0.8"/>
      </g>
     </g>
     <g id="text_15">
      <!-- 15 -->
      <g transform="translate(37.875 71.548691) scale(0.1 -0.1)">
       <use xlink:href="#DejaVuSans-31"/>
       <use xlink:href="#DejaVuSans-35" x="63.623047"/>
      </g>
     </g>
    </g>
    <g id="text_16">
     <!-- Energy (eV) -->
     <g transform="translate(23.415625 204.02175) rotate(-90) scale(0.1 -0.1)">
      <defs>
       <path id="DejaVuSans-45" d="M 628 4666 
L 3578 4666 
L 3578 4134 
L 1259 4134 
L 1259 2753 
L 3481 2753 
L 3481 2222 
L 1259 2222 
L 1259 531 
L 3634 531 
L 3634 0 
L 628 0 
L 628 4666 
z
" transform="scale(0.015625)"/>
       <path id="DejaVuSans-6e" d="M 3513 2113 
L 3513 0 
L 2938 0 
L 2938 2094 
Q 2938 2591 2744 2837 
Q 2550 3084 2163 3084 
Q 1697 3084 1428 2787 
Q 1159 2491 1159 1978 
L 1159 0 
L 581 0 
L 581 3500 
L 1159 3500 
L 1159 2956 
Q 1366 3272 1645 3428 
Q 1925 3584 2291 3584 
Q 2894 3584 3203 3211 
Q 3513 2838 3513 2113 
z
" transform="scale(0.015625)"/>
       <path id="DejaVuSans-65" d="M 3597 1894 
L 3597 1613 
L 953 1613 
Q 991 1019 1311 708 
Q 1631 397 2203 397 
Q 2534 397 2845 478 
Q 3156 559 3463 722 
L 3463 178 
Q 3153 47 2828 -22 
Q 2503 -91 2169 -91 
Q 1331 -91 842 396 
Q 353 884 353 1716 
Q 353 2575 817 3079 
Q 1281 3584 2069 3584 
Q 2775 3584 3186 3129 
Q 3597 2675 3597 1894 
z
M 3022 2063 
Q 3016 2534 2758 2815 
Q 2500 3097 2075 3097 
Q 1594 3097 1305 2825 
Q 1016 2553 972 2059 
L 3022 2063 
z
" transform="scale(0.015625)"/>
       <path id="DejaVuSans-72" d="M 2631 2963 
Q 2534 3019 2420 3045 
Q 2306 3072 2169 3072 
Q 1681 3072 1420 2755 
Q 1159 2438 1159 1844 
L 1159 0 
L 581 0 
L 581 3500 
L 1159 3500 
L 1159 2956 
Q 1341 3275 1631 3429 
Q 1922 3584 2338 3584 
Q 2397 3584 2469 3576 
Q 2541 3569 2628 3553 
L 2631 2963 
z
" transform="scale(0.015625)"/>
       <path id="DejaVuSans-67" d="M 2906 1791 
Q 2906 2416 2648 2759 
Q 2391 3103 1925 3103 
Q 1463 3103 1205 2759 
Q 947 2416 947 1791 
Q 947 1169 1205 825 
Q 1463 481 1925 481 
Q 2391 481 2648 825 
Q 2906 1169 2906 1791 
z
M 3481 434 
Q 3481 -459 3084 -895 
Q 2688 -1331 1869 -1331 
Q 1566 -1331 1297 -1286 
Q 1028 -1241 775 -1147 
L 775 -588 
Q 1028 -725 1275 -790 
Q 1522 -856 1778 -856 
Q 2344 -856 2625 -561 
Q 2906 -266 2906 331 
L 2906 616 
Q 2728 306 2450 153 
Q 2172 0 1784 0 
Q 1141 0 747 490 
Q 353 981 353 1791 
Q 353 2603 747 3093 
Q 1141 3584 1784 3584 
Q 2172 3584 2450 3431 
Q 2728 3278 2906 2969 
L 2906 3500 
L 3481 3500 
L 3481 434 
z
" transform="scale(0.015625)"/>
       <path id="DejaVuSans-79" d="M 2059 -325 
Q 1816 -950 1584 -1140 
Q 1353 -1331 966 -1331 
L 506 -1331 
L 506 -850 
L 844 -850 
Q 1081 -850 1212 -737 
Q 1344 -625 1503 -206 
L 1606 56 
L 191 3500 
L 800 3500 
L 1894 763 
L 2988 3500 
L 3597 3500 
L 2059 -325 
z
" transform="scale(0.015625)"/>
       <path id="DejaVuSans-20" transform="scale(0.015625)"/>
       <path id="DejaVuSans-28" d="M 1984 4856 
Q 1566 4138 1362 3434 
Q 1159 2731 1159 2009 
Q 1159 1288 1364 580 
Q 1569 -128 1984 -844 
L 1484 -844 
Q 1016 -109 783 600 
Q 550 1309 550 2009 
Q 550 2706 781 3412 
Q 1013 4119 1484 4856 
L 1984 4856 
z
" transform="scale(0.015625)"/>
       <path id="DejaVuSans-56" d="M 1831 0 
L 50 4666 
L 709 4666 
L 2188 738 
L 3669 4666 
L 4325 4666 
L 2547 0 
L 1831 0 
z
" transform="scale(0.015625)"/>
       <path id="DejaVuSans-29" d="M 513 4856 
L 1013 4856 
Q 1481 4119 1714 3412 
Q 1947 2706 1947 2009 
Q 1947 1309 1714 600 
Q 1481 -109 1013 -844 
L 513 -844 
Q 928 -128 1133 580 
Q 1338 1288 1338 2009 
Q 1338 2731 1133 3434 
Q 928 4138 513 4856 
z
" transform="scale(0.015625)"/>
      </defs>
      <use xlink:href="#DejaVuSans-45"/>
      <use xlink:href="#DejaVuSans-6e" x="63.183594"/>
      <use xlink:href="#DejaVuSans-65" x="126.5625"/>
      <use xlink:href="#DejaVuSans-72" x="188.085938"/>
      <use xlink:href="#DejaVuSans-67" x="227.449219"/>
      <use xlink:href="#DejaVuSans-79" x="290.925781"/>
      <use xlink:href="#DejaVuSans-20" x="350.105469"/>
      <use xlink:href="#DejaVuSans-28" x="381.892578"/>
      <use xlink:href="#DejaVuSans-65" x="420.90625"/>
      <use xlink:href="#DejaVuSans-56" x="482.429688"/>
      <use xlink:href="#DejaVuSans-29" x="550.837891"/>
     </g>
    </g>
   </g>
   <g id="line2d_16">
    <path d="M 57.6 295.488 
L 62.908293 295.327406 
L 65.558461 295.113281 
L 68.208628 294.678878 
L 70.866754 294.115877 
L 73.516921 293.426124 
L 76.167088 292.609004 
L 81.475382 290.691724 
L 86.783675 288.149912 
L 92.08401 285.144779 
L 100.04247 279.96517 
L 105.350763 275.792194 
L 110.659056 271.162664 
L 115.959391 266.092578 
L 121.267684 260.604703 
L 126.575978 254.727957 
L 134.534438 245.396292 
L 137.184605 242.095814 
L 141.872139 242.010902 
L 153.125402 241.305766 
L 156.881795 241.263926 
L 159.691132 241.474359 
L 161.569329 241.831234 
L 163.447525 242.35301 
L 165.325722 243.082758 
L 165.325722 243.082758 
L 168.135058 244.621012 
L 170.952354 246.647815 
L 173.76169 249.050568 
L 179.388322 254.488604 
L 187.832248 262.91393 
L 193.45888 268.361196 
L 204.712143 277.89591 
L 207.529438 280.033468 
L 213.15607 283.828649 
L 218.782701 287.231882 
L 221.599996 288.712298 
L 224.409333 290.05304 
L 227.226628 291.252879 
L 230.035965 292.311813 
L 232.85326 293.236611 
L 238.479891 294.553357 
L 241.289228 295.043137 
L 244.106523 295.297256 
L 249.733154 295.488 
L 254.325186 295.368016 
L 256.625181 295.207422 
L 261.225171 294.530591 
L 265.817203 293.403358 
L 270.409235 291.895869 
L 275.009225 289.99028 
L 279.601257 287.73643 
L 284.193289 285.114014 
L 288.793279 282.131647 
L 293.385311 278.802865 
L 297.977342 275.149819 
L 300.277337 273.21408 
L 302.577332 271.522 
L 311.761396 263.464625 
L 314.061391 261.685788 
L 316.361386 260.356736 
L 318.653423 259.839268 
L 322.409816 259.745127 
L 326.158251 259.412864 
L 329.914644 258.84494 
L 335.541276 257.607569 
L 341.167908 255.952407 
L 348.672736 252.819906 
L 352.421171 251.008458 
L 356.169606 248.968733 
L 359.925999 246.743802 
L 365.552631 243.107985 
L 374.927697 236.824524 
L 377.585823 236.905129 
L 380.23599 237.175862 
L 384.215221 237.75486 
L 390.844618 239.029765 
L 397.481974 240.332974 
L 408.090602 241.811544 
L 413.398896 242.085354 
L 414.72 242.095814 
L 414.72 242.095814 
" clip-path="url(#pd7831357cb)" style="fill: none; stroke: #1f77b4; stroke-linecap: square"/>
   </g>
   <g id="line2d_17">
    <path d="M 57.6 160.037338 
L 60.250167 160.343143 
L 62.908293 161.296245 
L 68.208628 164.586263 
L 70.866754 166.518926 
L 73.516921 169.009052 
L 78.825214 173.372156 
L 84.125549 177.801097 
L 92.08401 184.21131 
L 97.392303 190.337253 
L 102.700596 196.881602 
L 110.659056 207.19898 
L 113.309224 210.725274 
L 115.959391 213.980835 
L 131.876312 235.30596 
L 137.184605 242.095814 
L 140.0019 242.030592 
L 146.56763 241.306997 
L 150.316065 240.617244 
L 154.0645 239.701675 
L 157.820894 238.543677 
L 163.447525 236.512566 
L 165.325722 235.685601 
L 165.325722 235.685601 
L 170.952354 232.865058 
L 176.578985 229.539353 
L 182.205617 225.717099 
L 190.649543 219.306271 
L 193.45888 216.870907 
L 199.085512 211.616846 
L 204.712143 205.989912 
L 210.338775 199.974723 
L 215.965406 193.628502 
L 221.599996 187.084153 
L 235.662596 170.293802 
L 241.289228 164.514888 
L 244.106523 162.312724 
L 246.923818 160.533887 
L 249.733154 160.037338 
L 252.03315 160.437284 
L 254.325186 161.802639 
L 256.625181 163.911277 
L 258.925176 166.186048 
L 265.817203 175.37004 
L 275.009225 189.222327 
L 291.085315 214.342017 
L 297.977342 224.555409 
L 302.577332 231.043765 
L 309.469359 239.819813 
L 311.761396 242.367162 
L 314.061391 244.551483 
L 316.361386 246.124809 
L 318.653423 246.721036 
L 322.409816 246.618281 
L 326.158251 246.26879 
L 329.914644 245.675639 
L 333.663079 244.850519 
L 341.167908 242.511758 
L 350.542974 238.576288 
L 358.047802 235.188437 
L 361.804196 233.751708 
L 363.674434 233.367144 
L 365.552631 233.247776 
L 367.430827 233.440365 
L 369.301066 233.945528 
L 371.179262 234.722039 
L 373.057459 235.703445 
L 374.927697 236.824524 
L 377.585823 236.905129 
L 380.23599 237.175862 
L 384.215221 237.75486 
L 390.844618 239.029765 
L 397.481974 240.332974 
L 408.090602 241.811544 
L 413.398896 242.085354 
L 414.72 242.095814 
L 414.72 242.095814 
" clip-path="url(#pd7831357cb)" style="fill: none; stroke: #1f77b4; stroke-linecap: square"/>
   </g>
   <g id="line2d_18">
    <path d="M 57.6 160.037338 
L 60.250167 160.343143 
L 62.908293 161.296245 
L 68.208628 164.586263 
L 70.866754 166.518926 
L 73.516921 169.009052 
L 78.825214 173.372156 
L 84.125549 177.801097 
L 92.08401 184.21131 
L 97.392303 187.948037 
L 102.700596 191.282357 
L 108.000931 194.192733 
L 113.309224 196.650248 
L 115.959391 197.703029 
L 118.617517 198.635211 
L 121.267684 199.446179 
L 126.575978 200.730314 
L 129.226145 201.168408 
L 134.534438 201.836011 
L 138.123704 201.944919 
L 140.0019 202.307947 
L 142.811237 203.309658 
L 144.689434 204.46581 
L 146.56763 205.861929 
L 151.255164 209.879234 
L 157.820894 216.084551 
L 160.63023 218.425774 
L 163.447525 220.705467 
L 165.325722 221.613652 
L 165.325722 221.613652 
L 168.135058 222.409852 
L 170.952354 222.546449 
L 173.76169 222.117584 
L 176.578985 221.238318 
L 179.388322 219.97695 
L 182.205617 218.463923 
L 187.832248 214.864408 
L 190.649543 212.766845 
L 193.45888 210.517917 
L 201.902807 202.851874 
L 207.529438 197.325234 
L 221.599996 182.524768 
L 227.226628 176.542805 
L 230.035965 173.655195 
L 232.85326 170.921409 
L 235.662596 167.723687 
L 238.479891 165.368312 
L 241.289228 163.317511 
L 244.106523 161.430996 
L 246.923818 160.382522 
L 249.733154 160.037338 
L 252.03315 160.133325 
L 254.325186 160.524042 
L 258.925176 161.684501 
L 263.517208 163.398116 
L 265.817203 164.276767 
L 268.117198 165.626123 
L 281.901252 171.318894 
L 286.493284 173.01282 
L 291.085315 174.524001 
L 295.685306 175.82844 
L 300.277337 176.909525 
L 304.869369 177.805404 
L 309.469359 178.417014 
L 314.061391 178.781888 
L 316.361386 178.871722 
L 318.653423 178.823729 
L 320.531619 179.265515 
L 324.280054 180.687477 
L 326.158251 181.720569 
L 328.036448 182.977015 
L 331.784883 186.014759 
L 335.541276 189.659806 
L 341.167908 195.719297 
L 344.916343 199.821513 
L 350.542974 206.135739 
L 352.421171 207.689991 
L 356.169606 211.388569 
L 358.047802 213.062189 
L 359.925999 214.569679 
L 361.804196 215.818741 
L 363.674434 216.805069 
L 365.552631 217.435754 
L 367.430827 217.665877 
L 369.301066 217.395144 
L 371.179262 216.864138 
L 373.057459 216.040865 
L 374.927697 214.992391 
L 377.585823 214.83795 
L 380.23599 214.466923 
L 382.886158 213.751327 
L 385.544284 212.808685 
L 392.173681 209.709411 
L 400.132142 205.764712 
L 404.111372 204.001257 
L 406.761539 203.041387 
L 408.090602 202.829723 
L 410.74077 202.245802 
L 413.398896 201.938151 
L 414.72 201.899387 
L 414.72 201.899387 
" clip-path="url(#pd7831357cb)" style="fill: none; stroke: #1f77b4; stroke-linecap: square"/>
   </g>
   <g id="line2d_19">
    <path d="M 57.6 160.037338 
L 60.250167 160.21393 
L 65.558461 162.196432 
L 70.866754 164.934524 
L 73.516921 167.038856 
L 76.167088 168.919833 
L 78.825214 171.020473 
L 81.475382 173.340775 
L 84.125549 175.822902 
L 89.433842 181.251094 
L 92.08401 184.167008 
L 97.392303 187.948037 
L 102.700596 191.282357 
L 108.000931 194.192733 
L 113.309224 196.650248 
L 115.959391 197.703029 
L 118.617517 198.635211 
L 121.267684 199.446179 
L 126.575978 200.730314 
L 129.226145 201.168408 
L 134.534438 201.836011 
L 139.062802 201.871698 
L 142.811237 201.634192 
L 146.56763 201.199173 
L 150.316065 200.549415 
L 154.0645 199.689223 
L 157.820894 198.625367 
L 164.386624 196.473041 
L 168.135058 194.904637 
L 173.76169 192.252072 
L 176.578985 190.806113 
L 179.388322 189.104804 
L 187.832248 184.315911 
L 193.45888 180.949596 
L 196.276175 178.866184 
L 204.712143 173.949309 
L 210.338775 170.94356 
L 215.965406 168.27192 
L 221.599996 166.009456 
L 227.226628 164.18078 
L 232.85326 162.790813 
L 235.662596 161.532521 
L 244.106523 160.364063 
L 246.923818 160.080409 
L 249.733154 160.037338 
L 252.03315 160.133325 
L 254.325186 160.524042 
L 258.925176 161.684501 
L 263.517208 163.398116 
L 265.817203 164.276767 
L 268.117198 165.626123 
L 281.901252 171.318894 
L 286.493284 173.01282 
L 291.085315 174.524001 
L 295.685306 175.82844 
L 300.277337 176.909525 
L 304.869369 177.805404 
L 309.469359 178.417014 
L 314.061391 178.781888 
L 316.361386 178.871722 
L 318.653423 178.823729 
L 320.531619 178.901257 
L 324.280054 179.556553 
L 326.158251 180.266611 
L 329.914644 181.431992 
L 333.663079 183.037314 
L 337.411514 185.051812 
L 343.046104 188.654403 
L 346.794539 191.52417 
L 352.421171 196.206 
L 359.925999 202.872794 
L 363.674434 206.303716 
L 367.430827 209.500823 
L 371.179262 212.425968 
L 374.927697 214.992391 
L 377.585823 214.83795 
L 380.23599 214.466923 
L 382.886158 213.751327 
L 385.544284 212.808685 
L 392.173681 209.709411 
L 400.132142 205.764712 
L 404.111372 204.001257 
L 406.761539 203.041387 
L 408.090602 202.829723 
L 410.74077 202.245802 
L 413.398896 201.938151 
L 414.72 201.899387 
L 414.72 201.899387 
" clip-path="url(#pd7831357cb)" style="fill: none; stroke: #1f77b4; stroke-linecap: square"/>
   </g>
   <g id="line2d_20">
    <path d="M 57.6 126.747672 
L 60.250167 126.818432 
L 62.908293 127.510031 
L 70.866754 128.92461 
L 76.167088 130.233972 
L 81.475382 131.77038 
L 84.125549 132.076185 
L 97.392303 136.15625 
L 102.700596 137.385008 
L 108.000931 138.323958 
L 113.309224 138.912186 
L 115.959391 138.782358 
L 118.617517 138.842042 
L 121.267684 138.788511 
L 123.917852 138.614996 
L 126.575978 138.317805 
L 129.226145 137.88894 
L 131.876312 137.324093 
L 134.534438 136.620188 
L 137.184605 135.765534 
L 140.0019 135.704003 
L 146.56763 135.035171 
L 150.316065 134.375567 
L 154.0645 133.519683 
L 156.881795 132.738249 
L 159.691132 131.769149 
L 164.386624 130.074609 
L 168.135058 128.470517 
L 173.76169 125.735501 
L 179.388322 122.665146 
L 193.45888 114.597926 
L 196.276175 113.028907 
L 199.085512 111.650016 
L 201.902807 110.466175 
L 204.712143 109.532763 
L 207.529438 111.016255 
L 213.15607 114.919729 
L 218.782701 118.609693 
L 221.599996 120.137487 
L 224.409333 121.525607 
L 227.226628 122.771593 
L 230.035965 123.874214 
L 232.85326 124.831008 
L 235.662596 125.215571 
L 238.479891 125.883789 
L 241.289228 126.402488 
L 246.923818 126.67199 
L 249.733154 126.747672 
L 252.03315 126.621536 
L 254.325186 126.3145 
L 256.625181 125.880712 
L 258.925176 125.094972 
L 261.225171 124.556583 
L 265.817203 122.351342 
L 270.409235 119.955973 
L 272.70923 118.626306 
L 277.301262 116.280776 
L 281.901252 114.226284 
L 286.493284 112.578506 
L 291.085315 111.381129 
L 293.385311 110.943649 
L 297.977342 110.464329 
L 300.277337 110.277278 
L 316.361386 110.168985 
L 320.531619 110.228669 
L 324.280054 110.617539 
L 329.914644 111.550952 
L 331.784883 111.595254 
L 335.541276 112.167484 
L 339.289711 112.516976 
L 341.167908 112.626499 
L 348.672736 111.60756 
L 350.542974 111.15839 
L 354.299368 109.793035 
L 358.047802 108.08988 
L 359.925999 107.093707 
L 365.552631 103.584641 
L 374.927697 97.287029 
L 376.25676 97.664209 
L 377.585823 98.680072 
L 378.906928 100.109418 
L 382.886158 105.516073 
L 390.844618 116.65611 
L 394.823849 121.832027 
L 397.481974 124.974373 
L 401.461205 129.088895 
L 404.111372 131.374126 
L 406.761539 133.220031 
L 408.090602 134.014385 
L 410.74077 135.131773 
L 412.069833 135.482495 
L 413.398896 135.694774 
L 414.72 135.765534 
L 414.72 135.765534 
" clip-path="url(#pd7831357cb)" style="fill: none; stroke: #1f77b4; stroke-linecap: square"/>
   </g>
   <g id="line2d_21">
    <path d="M 57.6 126.747672 
L 60.250167 126.379107 
L 62.908293 125.429696 
L 65.558461 124.107413 
L 68.208628 122.008004 
L 70.866754 119.546182 
L 73.516921 116.882541 
L 78.825214 110.90427 
L 81.475382 108.59935 
L 86.783675 101.928249 
L 89.433842 98.613004 
L 92.08401 95.481734 
L 94.742135 98.586546 
L 100.04247 105.378246 
L 105.350763 111.787843 
L 108.000931 114.761596 
L 110.659056 117.558142 
L 113.309224 120.167636 
L 115.959391 122.584541 
L 118.617517 124.809472 
L 121.267684 126.843044 
L 123.917852 128.688334 
L 126.575978 130.676989 
L 129.226145 132.175248 
L 134.534438 134.758285 
L 137.184605 135.765534 
L 138.123704 135.701542 
L 139.062802 135.510183 
L 140.0019 135.192688 
L 141.872139 134.192823 
L 143.750335 132.735173 
L 145.628532 130.86281 
L 147.49877 128.620035 
L 149.376967 126.038845 
L 151.255164 123.177077 
L 154.0645 118.468173 
L 156.881795 113.335327 
L 165.325722 96.842166 
L 165.325722 96.842166 
L 170.952354 85.068369 
L 173.76169 79.399594 
L 187.832248 94.038851 
L 193.45888 99.476888 
L 196.276175 101.623675 
L 201.902807 106.545473 
L 204.712143 108.839933 
L 207.529438 108.899002 
L 210.338775 108.599965 
L 213.15607 108.652266 
L 215.965406 109.057134 
L 218.782701 110.111146 
L 221.599996 111.701086 
L 227.226628 116.051884 
L 232.85326 120.268546 
L 238.479891 123.770228 
L 241.289228 125.257412 
L 244.106523 126.247432 
L 249.733154 126.747672 
L 252.03315 126.621536 
L 254.325186 126.3145 
L 256.625181 125.880712 
L 258.925176 125.094972 
L 261.225171 124.556583 
L 265.817203 122.351342 
L 270.409235 119.955973 
L 272.70923 118.626306 
L 277.301262 116.280776 
L 281.901252 114.226284 
L 286.493284 112.578506 
L 291.085315 111.381129 
L 295.685306 110.602772 
L 300.277337 110.162831 
L 302.577332 110.276047 
L 307.169364 110.182521 
L 320.531619 110.048385 
L 328.036448 109.39555 
L 331.784883 108.810398 
L 335.541276 108.038195 
L 341.167908 106.579315 
L 343.046104 105.654516 
L 346.794539 104.343308 
L 348.672736 103.626482 
L 350.542974 103.086247 
L 358.047802 99.798075 
L 363.674434 97.290721 
L 365.552631 96.577586 
L 367.430827 96.026276 
L 369.301066 95.741391 
L 371.179262 95.845992 
L 373.057459 96.384997 
L 374.927697 97.287029 
L 376.25676 97.664209 
L 377.585823 98.680072 
L 378.906928 100.109418 
L 382.886158 105.516073 
L 390.844618 116.65611 
L 394.823849 121.832027 
L 397.481974 124.974373 
L 401.461205 129.088895 
L 404.111372 131.374126 
L 406.761539 133.220031 
L 408.090602 134.014385 
L 410.74077 135.131773 
L 412.069833 135.482495 
L 413.398896 135.694774 
L 414.72 135.765534 
L 414.72 135.765534 
" clip-path="url(#pd7831357cb)" style="fill: none; stroke: #1f77b4; stroke-linecap: square"/>
   </g>
   <g id="line2d_22">
    <path d="M 57.6 126.747672 
L 60.250167 126.379107 
L 62.908293 125.429696 
L 65.558461 124.107413 
L 68.208628 122.008004 
L 70.866754 119.546182 
L 73.516921 116.882541 
L 78.825214 110.90427 
L 81.475382 108.59935 
L 86.783675 101.928249 
L 89.433842 98.613004 
L 92.08401 95.481734 
L 102.700596 82.274284 
L 108.000931 75.880069 
L 113.309224 69.826731 
L 115.959391 66.932352 
L 118.617517 64.268096 
L 121.267684 61.812427 
L 123.917852 59.609647 
L 126.575978 57.790815 
L 129.226145 56.247639 
L 131.876312 55.103793 
L 134.534438 54.401118 
L 138.123704 54.185148 
L 140.0019 54.3642 
L 141.872139 54.719229 
L 143.750335 55.246543 
L 145.628532 55.939373 
L 148.437869 57.272116 
L 150.316065 58.342741 
L 151.255164 58.211682 
L 154.0645 60.187415 
L 156.881795 62.409885 
L 160.63023 65.688212 
L 161.569329 67.012957 
L 164.386624 69.806426 
L 168.135058 73.563458 
L 173.76169 79.398364 
L 176.578985 74.447647 
L 179.388322 71.793235 
L 182.205617 72.871244 
L 185.014953 75.572418 
L 190.649543 81.994321 
L 193.45888 85.128053 
L 196.276175 87.887065 
L 201.902807 93.786578 
L 207.529438 99.305218 
L 213.15607 104.427605 
L 218.782701 109.411548 
L 221.599996 111.197769 
L 224.409333 112.577891 
L 227.226628 114.221977 
L 230.035965 116.091263 
L 232.85326 118.131603 
L 235.662596 119.985507 
L 238.479891 122.123065 
L 241.289228 124.094492 
L 244.106523 125.373089 
L 246.923818 126.336651 
L 249.733154 126.747672 
L 254.325186 126.3145 
L 256.625181 125.419851 
L 261.225171 122.775285 
L 265.817203 119.971355 
L 270.409235 117.502765 
L 272.70923 116.059883 
L 277.301262 114.287199 
L 281.901252 112.945841 
L 286.493284 111.952129 
L 291.085315 111.22115 
L 300.277337 110.162831 
L 307.169364 109.922249 
L 320.531619 109.353095 
L 322.409816 109.063903 
L 324.280054 108.146488 
L 326.158251 106.847586 
L 328.036448 105.206577 
L 329.914644 103.275145 
L 331.784883 101.091439 
L 335.541276 96.196714 
L 341.167908 88.114112 
L 343.046104 85.042526 
L 344.916343 82.357349 
L 346.794539 79.869685 
L 348.672736 77.723513 
L 350.542974 76.545825 
L 352.421171 75.575495 
L 354.299368 75.455511 
L 356.169606 76.016051 
L 358.047802 77.071908 
L 363.674434 81.278726 
L 365.552631 82.776985 
L 367.430827 84.091885 
L 369.301066 85.076367 
L 371.179262 85.626447 
L 373.057459 85.666442 
L 376.25676 84.882547 
L 377.585823 83.870992 
L 380.23599 81.045526 
L 384.215221 75.66779 
L 385.544284 73.844651 
L 386.865388 72.305166 
L 390.844618 67.196316 
L 393.502744 64.136421 
L 396.152912 61.424787 
L 398.803079 58.919894 
L 400.132142 58.305207 
L 402.782309 56.590362 
L 405.440435 55.260695 
L 406.761539 54.733381 
L 408.090602 54.713692 
L 409.419665 54.359278 
L 410.74077 54.503259 
L 413.398896 54.20053 
L 414.72 54.162997 
L 414.72 54.162997 
" clip-path="url(#pd7831357cb)" style="fill: none; stroke: #1f77b4; stroke-linecap: square"/>
   </g>
   <g id="line2d_23">
    <path d="M 57.6 81.025837 
L 60.250167 80.932926 
L 65.558461 80.947693 
L 70.866754 80.510214 
L 73.516921 81.336564 
L 76.167088 81.701438 
L 78.825214 82.553631 
L 81.475382 84.168182 
L 84.125549 86.217137 
L 86.783675 88.81371 
L 89.433842 91.822535 
L 92.08401 95.198695 
L 94.742135 92.149875 
L 105.350763 79.045181 
L 110.659056 72.799253 
L 115.959391 66.932352 
L 118.617517 64.268096 
L 121.267684 61.812427 
L 123.917852 59.609647 
L 126.575978 57.790815 
L 129.226145 56.247639 
L 131.876312 55.103793 
L 134.534438 54.401118 
L 138.123704 54.178379 
L 140.0019 54.298978 
L 140.93304 53.568 
L 143.750335 54.071317 
L 146.56763 54.820139 
L 147.49877 55.117945 
L 148.437869 55.028726 
L 152.194262 56.528832 
L 159.691132 59.968983 
L 160.63023 60.468608 
L 161.569329 61.171283 
L 173.76169 67.903913 
L 176.578985 69.419401 
L 179.388322 69.994093 
L 185.014953 72.857707 
L 187.832248 73.786813 
L 190.649543 75.002033 
L 193.45888 76.086195 
L 199.085512 77.643523 
L 201.902807 78.207755 
L 204.712143 78.569552 
L 207.529438 78.736299 
L 213.15607 78.642773 
L 218.782701 78.459413 
L 221.599996 78.526481 
L 224.409333 78.761527 
L 227.226628 79.159627 
L 232.85326 80.258555 
L 235.662596 79.90168 
L 238.479891 80.506522 
L 241.289228 80.796329 
L 244.106523 80.928004 
L 246.923818 80.920005 
L 249.733154 81.025837 
L 256.625181 80.898469 
L 258.925176 80.499138 
L 261.225171 80.560053 
L 263.517208 79.98167 
L 265.817203 79.285764 
L 268.117198 79.170702 
L 272.70923 77.374021 
L 277.301262 75.288764 
L 286.493284 70.906586 
L 291.085315 68.983153 
L 295.685306 67.451667 
L 297.977342 66.859131 
L 300.277337 66.381657 
L 304.869369 65.73436 
L 316.361386 65.35841 
L 318.653423 65.017533 
L 320.531619 64.981231 
L 322.409816 65.098753 
L 331.784883 64.314859 
L 333.663079 64.359161 
L 337.411514 64.929545 
L 339.289711 65.38733 
L 341.167908 66.046318 
L 343.046104 66.504717 
L 346.794539 68.291553 
L 348.672736 69.335105 
L 350.542974 70.559555 
L 352.421171 71.444359 
L 358.047802 75.293686 
L 359.925999 76.617816 
L 361.804196 77.773352 
L 367.430827 81.603605 
L 369.301066 82.486563 
L 371.179262 83.576877 
L 373.057459 84.526288 
L 374.927697 85.259112 
L 376.25676 84.882547 
L 377.585823 83.870992 
L 380.23599 81.045526 
L 384.215221 75.66779 
L 385.544284 73.844651 
L 386.865388 72.305166 
L 390.844618 67.196316 
L 393.502744 64.136421 
L 396.152912 61.424787 
L 398.803079 58.919894 
L 400.132142 58.305207 
L 402.782309 56.590362 
L 405.440435 55.260695 
L 406.761539 54.733381 
L 408.090602 54.713692 
L 409.419665 54.359278 
L 410.74077 54.503259 
L 413.398896 54.20053 
L 414.72 54.162997 
L 414.72 54.162997 
" clip-path="url(#pd7831357cb)" style="fill: none; stroke: #1f77b4; stroke-linecap: square"/>
   </g>
   <g id="line2d_24">
    <path d="M 57.6 307.584 
L 57.6 41.472 
" clip-path="url(#pd7831357cb)" style="fill: none; stroke-dasharray: 3.7,1.6; stroke-dashoffset: 0; stroke: #808080"/>
   </g>
   <g id="line2d_25">
    <path d="M 138.123704 307.584 
L 138.123704 41.472 
" clip-path="url(#pd7831357cb)" style="fill: none; stroke-dasharray: 3.7,1.6; stroke-dashoffset: 0; stroke: #808080"/>
   </g>
   <g id="line2d_26">
    <path d="M 165.325722 307.584 
L 165.325722 41.472 
" clip-path="url(#pd7831357cb)" style="fill: none; stroke-dasharray: 3.7,1.6; stroke-dashoffset: 0; stroke: #808080"/>
   </g>
   <g id="line2d_27">
    <path d="M 249.733154 307.584 
L 249.733154 41.472 
" clip-path="url(#pd7831357cb)" style="fill: none; stroke-dasharray: 3.7,1.6; stroke-dashoffset: 0; stroke: #808080"/>
   </g>
   <g id="line2d_28">
    <path d="M 318.653423 307.584 
L 318.653423 41.472 
" clip-path="url(#pd7831357cb)" style="fill: none; stroke-dasharray: 3.7,1.6; stroke-dashoffset: 0; stroke: #808080"/>
   </g>
   <g id="line2d_29">
    <path d="M 374.927697 307.584 
L 374.927697 41.472 
" clip-path="url(#pd7831357cb)" style="fill: none; stroke-dasharray: 3.7,1.6; stroke-dashoffset: 0; stroke: #808080"/>
   </g>
   <g id="line2d_30">
    <path d="M 414.72 307.584 
L 414.72 41.472 
" clip-path="url(#pd7831357cb)" style="fill: none; stroke-dasharray: 3.7,1.6; stroke-dashoffset: 0; stroke: #808080"/>
   </g>
   <g id="patch_3">
    <path d="M 57.6 307.584 
L 57.6 41.472 
" style="fill: none; stroke: #000000; stroke-width: 0.8; stroke-linejoin: miter; stroke-linecap: square"/>
   </g>
   <g id="patch_4">
    <path d="M 414.72 307.584 
L 414.72 41.472 
" style="fill: none; stroke: #000000; stroke-width: 0.8; stroke-linejoin: miter; stroke-linecap: square"/>
   </g>
   <g id="patch_5">
    <path d="M 57.6 307.584 
L 414.72 307.584 
" style="fill: none; stroke: #000000; stroke-width: 0.8; stroke-linejoin: miter; stroke-linecap: square"/>
   </g>
   <g id="patch_6">
    <path d="M 57.6 41.472 
L 414.72 41.472 
" style="fill: none; stroke: #000000; stroke-width: 0.8; stroke-linejoin: miter; stroke-linecap: square"/>
   </g>
   <g id="text_17">
    <!-- Carbon Diamond Electronic Band Structure -->
    <g transform="translate(106.940625 35.472) scale(0.12 -0.12)">
     <defs>
      <path id="DejaVuSans-43" d="M 4122 4306 
L 4122 3641 
Q 3803 3938 3442 4084 
Q 3081 4231 2675 4231 
Q 1875 4231 1450 3742 
Q 1025 3253 1025 2328 
Q 1025 1406 1450 917 
Q 1875 428 2675 428 
Q 3081 428 3442 575 
Q 3803 722 4122 1019 
L 4122 359 
Q 3791 134 3420 21 
Q 3050 -91 2638 -91 
Q 1578 -91 968 557 
Q 359 1206 359 2328 
Q 359 3453 968 4101 
Q 1578 4750 2638 4750 
Q 3056 4750 3426 4639 
Q 3797 4528 4122 4306 
z
" transform="scale(0.015625)"/>
      <path id="DejaVuSans-61" d="M 2194 1759 
Q 1497 1759 1228 1600 
Q 959 1441 959 1056 
Q 959 750 1161 570 
Q 1363 391 1709 391 
Q 2188 391 2477 730 
Q 2766 1069 2766 1631 
L 2766 1759 
L 2194 1759 
z
M 3341 1997 
L 3341 0 
L 2766 0 
L 2766 531 
Q 2569 213 2275 61 
Q 1981 -91 1556 -91 
Q 1019 -91 701 211 
Q 384 513 384 1019 
Q 384 1609 779 1909 
Q 1175 2209 1959 2209 
L 2766 2209 
L 2766 2266 
Q 2766 2663 2505 2880 
Q 2244 3097 1772 3097 
Q 1472 3097 1187 3025 
Q 903 2953 641 2809 
L 641 3341 
Q 956 3463 1253 3523 
Q 1550 3584 1831 3584 
Q 2591 3584 2966 3190 
Q 3341 2797 3341 1997 
z
" transform="scale(0.015625)"/>
      <path id="DejaVuSans-62" d="M 3116 1747 
Q 3116 2381 2855 2742 
Q 2594 3103 2138 3103 
Q 1681 3103 1420 2742 
Q 1159 2381 1159 1747 
Q 1159 1113 1420 752 
Q 1681 391 2138 391 
Q 2594 391 2855 752 
Q 3116 1113 3116 1747 
z
M 1159 2969 
Q 1341 3281 1617 3432 
Q 1894 3584 2278 3584 
Q 2916 3584 3314 3078 
Q 3713 2572 3713 1747 
Q 3713 922 3314 415 
Q 2916 -91 2278 -91 
Q 1894 -91 1617 61 
Q 1341 213 1159 525 
L 1159 0 
L 581 0 
L 581 4863 
L 1159 4863 
L 1159 2969 
z
" transform="scale(0.015625)"/>
      <path id="DejaVuSans-6f" d="M 1959 3097 
Q 1497 3097 1228 2736 
Q 959 2375 959 1747 
Q 959 1119 1226 758 
Q 1494 397 1959 397 
Q 2419 397 2687 759 
Q 2956 1122 2956 1747 
Q 2956 2369 2687 2733 
Q 2419 3097 1959 3097 
z
M 1959 3584 
Q 2709 3584 3137 3096 
Q 3566 2609 3566 1747 
Q 3566 888 3137 398 
Q 2709 -91 1959 -91 
Q 1206 -91 779 398 
Q 353 888 353 1747 
Q 353 2609 779 3096 
Q 1206 3584 1959 3584 
z
" transform="scale(0.015625)"/>
      <path id="DejaVuSans-44" d="M 1259 4147 
L 1259 519 
L 2022 519 
Q 2988 519 3436 956 
Q 3884 1394 3884 2338 
Q 3884 3275 3436 3711 
Q 2988 4147 2022 4147 
L 1259 4147 
z
M 628 4666 
L 1925 4666 
Q 3281 4666 3915 4102 
Q 4550 3538 4550 2338 
Q 4550 1131 3912 565 
Q 3275 0 1925 0 
L 628 0 
L 628 4666 
z
" transform="scale(0.015625)"/>
      <path id="DejaVuSans-69" d="M 603 3500 
L 1178 3500 
L 1178 0 
L 603 0 
L 603 3500 
z
M 603 4863 
L 1178 4863 
L 1178 4134 
L 603 4134 
L 603 4863 
z
" transform="scale(0.015625)"/>
      <path id="DejaVuSans-6d" d="M 3328 2828 
Q 3544 3216 3844 3400 
Q 4144 3584 4550 3584 
Q 5097 3584 5394 3201 
Q 5691 2819 5691 2113 
L 5691 0 
L 5113 0 
L 5113 2094 
Q 5113 2597 4934 2840 
Q 4756 3084 4391 3084 
Q 3944 3084 3684 2787 
Q 3425 2491 3425 1978 
L 3425 0 
L 2847 0 
L 2847 2094 
Q 2847 2600 2669 2842 
Q 2491 3084 2119 3084 
Q 1678 3084 1418 2786 
Q 1159 2488 1159 1978 
L 1159 0 
L 581 0 
L 581 3500 
L 1159 3500 
L 1159 2956 
Q 1356 3278 1631 3431 
Q 1906 3584 2284 3584 
Q 2666 3584 2933 3390 
Q 3200 3197 3328 2828 
z
" transform="scale(0.015625)"/>
      <path id="DejaVuSans-64" d="M 2906 2969 
L 2906 4863 
L 3481 4863 
L 3481 0 
L 2906 0 
L 2906 525 
Q 2725 213 2448 61 
Q 2172 -91 1784 -91 
Q 1150 -91 751 415 
Q 353 922 353 1747 
Q 353 2572 751 3078 
Q 1150 3584 1784 3584 
Q 2172 3584 2448 3432 
Q 2725 3281 2906 2969 
z
M 947 1747 
Q 947 1113 1208 752 
Q 1469 391 1925 391 
Q 2381 391 2643 752 
Q 2906 1113 2906 1747 
Q 2906 2381 2643 2742 
Q 2381 3103 1925 3103 
Q 1469 3103 1208 2742 
Q 947 2381 947 1747 
z
" transform="scale(0.015625)"/>
      <path id="DejaVuSans-6c" d="M 603 4863 
L 1178 4863 
L 1178 0 
L 603 0 
L 603 4863 
z
" transform="scale(0.015625)"/>
      <path id="DejaVuSans-63" d="M 3122 3366 
L 3122 2828 
Q 2878 2963 2633 3030 
Q 2388 3097 2138 3097 
Q 1578 3097 1268 2742 
Q 959 2388 959 1747 
Q 959 1106 1268 751 
Q 1578 397 2138 397 
Q 2388 397 2633 464 
Q 2878 531 3122 666 
L 3122 134 
Q 2881 22 2623 -34 
Q 2366 -91 2075 -91 
Q 1284 -91 818 406 
Q 353 903 353 1747 
Q 353 2603 823 3093 
Q 1294 3584 2113 3584 
Q 2378 3584 2631 3529 
Q 2884 3475 3122 3366 
z
" transform="scale(0.015625)"/>
      <path id="DejaVuSans-74" d="M 1172 4494 
L 1172 3500 
L 2356 3500 
L 2356 3053 
L 1172 3053 
L 1172 1153 
Q 1172 725 1289 603 
Q 1406 481 1766 481 
L 2356 481 
L 2356 0 
L 1766 0 
Q 1100 0 847 248 
Q 594 497 594 1153 
L 594 3053 
L 172 3053 
L 172 3500 
L 594 3500 
L 594 4494 
L 1172 4494 
z
" transform="scale(0.015625)"/>
      <path id="DejaVuSans-42" d="M 1259 2228 
L 1259 519 
L 2272 519 
Q 2781 519 3026 730 
Q 3272 941 3272 1375 
Q 3272 1813 3026 2020 
Q 2781 2228 2272 2228 
L 1259 2228 
z
M 1259 4147 
L 1259 2741 
L 2194 2741 
Q 2656 2741 2882 2914 
Q 3109 3088 3109 3444 
Q 3109 3797 2882 3972 
Q 2656 4147 2194 4147 
L 1259 4147 
z
M 628 4666 
L 2241 4666 
Q 2963 4666 3353 4366 
Q 3744 4066 3744 3513 
Q 3744 3084 3544 2831 
Q 3344 2578 2956 2516 
Q 3422 2416 3680 2098 
Q 3938 1781 3938 1306 
Q 3938 681 3513 340 
Q 3088 0 2303 0 
L 628 0 
L 628 4666 
z
" transform="scale(0.015625)"/>
      <path id="DejaVuSans-53" d="M 3425 4513 
L 3425 3897 
Q 3066 4069 2747 4153 
Q 2428 4238 2131 4238 
Q 1616 4238 1336 4038 
Q 1056 3838 1056 3469 
Q 1056 3159 1242 3001 
Q 1428 2844 1947 2747 
L 2328 2669 
Q 3034 2534 3370 2195 
Q 3706 1856 3706 1288 
Q 3706 609 3251 259 
Q 2797 -91 1919 -91 
Q 1588 -91 1214 -16 
Q 841 59 441 206 
L 441 856 
Q 825 641 1194 531 
Q 1563 422 1919 422 
Q 2459 422 2753 634 
Q 3047 847 3047 1241 
Q 3047 1584 2836 1778 
Q 2625 1972 2144 2069 
L 1759 2144 
Q 1053 2284 737 2584 
Q 422 2884 422 3419 
Q 422 4038 858 4394 
Q 1294 4750 2059 4750 
Q 2388 4750 2728 4690 
Q 3069 4631 3425 4513 
z
" transform="scale(0.015625)"/>
      <path id="DejaVuSans-75" d="M 544 1381 
L 544 3500 
L 1119 3500 
L 1119 1403 
Q 1119 906 1312 657 
Q 1506 409 1894 409 
Q 2359 409 2629 706 
Q 2900 1003 2900 1516 
L 2900 3500 
L 3475 3500 
L 3475 0 
L 2900 0 
L 2900 538 
Q 2691 219 2414 64 
Q 2138 -91 1772 -91 
Q 1169 -91 856 284 
Q 544 659 544 1381 
z
M 1991 3584 
L 1991 3584 
z
" transform="scale(0.015625)"/>
     </defs>
     <use xlink:href="#DejaVuSans-43"/>
     <use xlink:href="#DejaVuSans-61" x="69.824219"/>
     <use xlink:href="#DejaVuSans-72" x="131.103516"/>
     <use xlink:href="#DejaVuSans-62" x="172.216797"/>
     <use xlink:href="#DejaVuSans-6f" x="235.693359"/>
     <use xlink:href="#DejaVuSans-6e" x="296.875"/>
     <use xlink:href="#DejaVuSans-20" x="360.253906"/>
     <use xlink:href="#DejaVuSans-44" x="392.041016"/>
     <use xlink:href="#DejaVuSans-69" x="469.042969"/>
     <use xlink:href="#DejaVuSans-61" x="496.826172"/>
     <use xlink:href="#DejaVuSans-6d" x="558.105469"/>
     <use xlink:href="#DejaVuSans-6f" x="655.517578"/>
     <use xlink:href="#DejaVuSans-6e" x="716.699219"/>
     <use xlink:href="#DejaVuSans-64" x="780.078125"/>
     <use xlink:href="#DejaVuSans-20" x="843.554688"/>
     <use xlink:href="#DejaVuSans-45" x="875.341797"/>
     <use xlink:href="#DejaVuSans-6c" x="938.525391"/>
     <use xlink:href="#DejaVuSans-65" x="966.308594"/>
     <use xlink:href="#DejaVuSans-63" x="1027.832031"/>
     <use xlink:href="#DejaVuSans-74" x="1082.8125"/>
     <use xlink:href="#DejaVuSans-72" x="1122.021484"/>
     <use xlink:href="#DejaVuSans-6f" x="1160.884766"/>
     <use xlink:href="#DejaVuSans-6e" x="1222.066406"/>
     <use xlink:href="#DejaVuSans-69" x="1285.445312"/>
     <use xlink:href="#DejaVuSans-63" x="1313.228516"/>
     <use xlink:href="#DejaVuSans-20" x="1368.208984"/>
     <use xlink:href="#DejaVuSans-42" x="1399.996094"/>
     <use xlink:href="#DejaVuSans-61" x="1468.599609"/>
     <use xlink:href="#DejaVuSans-6e" x="1529.878906"/>
     <use xlink:href="#DejaVuSans-64" x="1593.257812"/>
     <use xlink:href="#DejaVuSans-20" x="1656.734375"/>
     <use xlink:href="#DejaVuSans-53" x="1688.521484"/>
     <use xlink:href="#DejaVuSans-74" x="1751.998047"/>
     <use xlink:href="#DejaVuSans-72" x="1791.207031"/>
     <use xlink:href="#DejaVuSans-75" x="1832.320312"/>
     <use xlink:href="#DejaVuSans-63" x="1895.699219"/>
     <use xlink:href="#DejaVuSans-74" x="1950.679688"/>
     <use xlink:href="#DejaVuSans-75" x="1989.888672"/>
     <use xlink:href="#DejaVuSans-72" x="2053.267578"/>
     <use xlink:href="#DejaVuSans-65" x="2092.130859"/>
    </g>
   </g>
  </g>
 </g>
 <defs>
  <clipPath id="pd7831357cb">
   <rect x="57.6" y="41.472" width="357.12" height="266.112"/>
  </clipPath>
 </defs>
</svg>
