<?xml version="1.0" encoding="UTF-8"?>
<svg id="svg2" xmlns="http://www.w3.org/2000/svg" xmlns:svg="http://www.w3.org/2000/svg" xmlns:sodipodi="http://sodipodi.sourceforge.net/DTD/sodipodi-0.dtd" xmlns:rdf="http://www.w3.org/1999/02/22-rdf-syntax-ns#" xmlns:inkscape="http://www.inkscape.org/namespaces/inkscape" xmlns:dc="http://purl.org/dc/elements/1.1/" xmlns:cc="http://creativecommons.org/ns#" version="1.1" viewBox="0 0 430 824.7">
  <!-- Generator: Adobe Illustrator 29.0.1, SVG Export Plug-In . SVG Version: 2.1.0 Build 192)  -->
  <defs>
    <style>
      .st0 {
        fill: #ffdfde;
      }

      .st0, .st1, .st2, .st3, .st4, .st5, .st6, .st7, .st8 {
        stroke-width: 2px;
      }

      .st0, .st1, .st2, .st4, .st6, .st7, .st8, .st9 {
        stroke: #000;
      }

      .st0, .st1, .st3, .st4, .st10, .st5, .st6, .st7 {
        stroke-linejoin: round;
      }

      .st0, .st1, .st3, .st4, .st10, .st5, .st6, .st7, .st8 {
        stroke-linecap: round;
      }

      .st1 {
        stroke-dasharray: 11.7 11.7;
      }

      .st1, .st2, .st3, .st4, .st10, .st5, .st8, .st9 {
        fill: none;
      }

      .st11 {
        font-size: 20.8px;
      }

      .st11, .st12, .st13, .st14, .st15 {
        isolation: isolate;
      }

      .st11, .st12, .st14, .st15 {
        font-family: ArialMT, Arial;
      }

      .st11, .st15 {
        fill: red;
      }

      .st3 {
        stroke: red;
      }

      .st10 {
        stroke: #fe3e39;
      }

      .st12 {
        font-size: 28px;
      }

      .st5 {
        stroke: #ff443f;
      }

      .st16 {
        fill-rule: evenodd;
      }

      .st6 {
        fill: #fe958f;
      }

      .st14, .st15 {
        font-size: 32px;
      }

      .st7 {
        fill: #fdfcc3;
      }
    </style>
  </defs>
  <sodipodi:namedview id="namedview4" bordercolor="#666666" borderopacity="1" fit-margin-bottom="4" fit-margin-left="4" fit-margin-right="4" fit-margin-top="4" gridtolerance="10" guidetolerance="10" inkscape:current-layer="svg2" inkscape:cx="276.88274" inkscape:cy="490.96625" inkscape:pageopacity="0" inkscape:pageshadow="2" inkscape:window-height="697" inkscape:window-maximized="1" inkscape:window-width="1280" inkscape:window-x="-8" inkscape:window-y="-8" inkscape:zoom="0.22" objecttolerance="10" pagecolor="#ffffff" showgrid="true">
    <inkscape:grid id="grid3759" empspacing="5" enabled="true" originx="40px" originy="94.32px" snapvisiblegridlinesonly="true" type="xygrid" visible="true"/>
  </sodipodi:namedview>
  <rect id="rect3771" class="st6" x="197.7" y="315.4" width="30" height="30"/>
  <rect id="rect3773" class="st0" x="177.7" y="355.4" width="30" height="30"/>
  <rect id="rect3775" class="st0" x="217.7" y="355.4" width="30" height="30"/>
  <rect id="rect3777" class="st0" x="177.7" y="515.4" width="30" height="30"/>
  <rect id="rect3779" class="st0" x="217.7" y="515.4" width="30" height="30"/>
  <rect id="rect3781" class="st0" x="197.7" y="555.4" width="30" height="30"/>
  <path id="path3785" class="st4" d="M257.7,370.4l45,80-45,80" inkscape:connector-curvature="0" sodipodi:nodetypes="ccc"/>
  <path id="path3787" class="st4" d="M167.7,530.4l-45-80,45-80" inkscape:connector-curvature="0" sodipodi:nodetypes="ccc"/>
  <path id="path3789" class="st4" d="M257.7,330.4l45,120-45,120" inkscape:connector-curvature="0" sodipodi:nodetypes="cc"/>
  <path id="path3791" class="st4" d="M167.7,570.4l-45-120,45-120" inkscape:connector-curvature="0" sodipodi:nodetypes="ccc"/>
  <path id="path3793" class="st3" d="M207.7,370.4h10" inkscape:connector-curvature="0"/>
  <path id="path3795" class="st10" d="M207.7,530.4h10" inkscape:connector-curvature="0"/>
  <rect id="rect3801" class="st7" x="82.7" y="435.4" width="30" height="30"/>
  <rect id="rect3803" class="st7" x="42.7" y="435.4" width="30" height="30"/>
  <rect id="rect3805" class="st7" x="2.7" y="435.4" width="30" height="30"/>
  <path id="path3807" class="st3" d="M167.7,370.4h10" inkscape:connector-curvature="0"/>
  <path id="path3809" class="st3" d="M247.7,370.4h10" inkscape:connector-curvature="0"/>
  <path id="path3811" class="st5" d="M227.7,330.4h30" inkscape:connector-curvature="0" sodipodi:nodetypes="cc"/>
  <path id="path3813" class="st5" d="M167.7,330.4h30" inkscape:connector-curvature="0" sodipodi:nodetypes="cc"/>
  <path id="path3815" class="st3" d="M207.7,530.4h10" inkscape:connector-curvature="0"/>
  <path id="path3817" class="st3" d="M167.7,530.4h10" inkscape:connector-curvature="0"/>
  <path id="path3819" class="st3" d="M247.7,530.4h10" inkscape:connector-curvature="0"/>
  <path id="path3821" class="st3" d="M227.7,570.4h30" inkscape:connector-curvature="0" sodipodi:nodetypes="cc"/>
  <path id="path3823" class="st3" d="M167.7,570.4h30" inkscape:connector-curvature="0" sodipodi:nodetypes="cc"/>
  <path id="path3825" class="st2" d="M122.7,450.4h-10" inkscape:connector-curvature="0"/>
  <path id="path3827" class="st9" d="M82.7,450.4h-10" inkscape:connector-curvature="0"/>
  <path id="path3829" class="st9" d="M42.7,450.4h-10" inkscape:connector-curvature="0"/>
  <rect id="rect3831" class="st7" x="392.7" y="435.4" width="30" height="30"/>
  <rect id="rect3833" class="st7" x="352.7" y="435.4" width="30" height="30"/>
  <rect id="rect3835" class="st7" x="312.7" y="435.4" width="30" height="30"/>
  <path id="path3837" class="st9" d="M392.7,450.4h-10" inkscape:connector-curvature="0"/>
  <path id="path3839" class="st9" d="M352.7,450.4h-10" inkscape:connector-curvature="0"/>
  <path id="path3841" class="st2" d="M312.7,450.4h-10" inkscape:connector-curvature="0"/>
  <g id="text3843" class="st13" sodipodi:linespacing="125%">
    <g class="st13">
      <g class="st13">
        <text class="st14" transform="translate(40.7 420.4)"><tspan x="0" y="0">2p</tspan></text>
      </g>
    </g>
  </g>
  <g id="text3847" class="st13" sodipodi:linespacing="125%">
    <g class="st13">
      <g class="st13">
        <text class="st14" transform="translate(347.7 420.4)"><tspan x="0" y="0">2p</tspan></text>
      </g>
    </g>
  </g>
  <g id="text3851" class="st13" sodipodi:linespacing="125%">
    <g class="st13">
      <g class="st13">
        <text class="st14" transform="translate(9.7 490.4)"><tspan x="0" y="0">x</tspan></text>
      </g>
    </g>
  </g>
  <g id="text3855" class="st13" sodipodi:linespacing="125%">
    <g class="st13">
      <g class="st13">
        <text class="st14" transform="translate(49.7 490.4)"><tspan x="0" y="0">y</tspan></text>
      </g>
    </g>
  </g>
  <g id="text3859" class="st13" sodipodi:linespacing="125%">
    <g class="st13">
      <g class="st13">
        <text class="st14" transform="translate(89.7 490.4)"><tspan x="0" y="0">z</tspan></text>
      </g>
    </g>
  </g>
  <g id="text3863" class="st13" sodipodi:linespacing="125%">
    <g class="st13">
      <g class="st13">
        <text class="st14" transform="translate(397.7 490.4)"><tspan x="0" y="0">x</tspan></text>
      </g>
    </g>
  </g>
  <g id="text3867" class="st13" sodipodi:linespacing="125%">
    <g class="st13">
      <g class="st13">
        <text class="st14" transform="translate(359.7 490.4)"><tspan x="0" y="0">y</tspan></text>
      </g>
    </g>
  </g>
  <g id="text3871" class="st13" sodipodi:linespacing="125%">
    <g class="st13">
      <g class="st13">
        <text class="st14" transform="translate(317.7 490.4)"><tspan x="0" y="0">z</tspan></text>
      </g>
    </g>
  </g>
  <g id="text3875" class="st13" sodipodi:linespacing="125%">
    <g class="st13">
      <g class="st13">
        <text class="st15" transform="translate(199.7 307.4)"><tspan x="0" y="0">σ</tspan></text>
      </g>
    </g>
  </g>
  <g id="text3887" class="st13" sodipodi:linespacing="125%">
    <g class="st13">
      <g class="st13">
        <text class="st11" transform="translate(197.7 415.4)"><tspan x="0" y="0">x</tspan></text>
      </g>
    </g>
  </g>
  <g id="text3938" class="st13" sodipodi:linespacing="125%">
    <g class="st13">
      <g class="st13">
        <text class="st11" transform="translate(219.7 303.4)"><tspan x="0" y="0">*</tspan></text>
      </g>
    </g>
  </g>
  <g id="text3924" class="st13" sodipodi:linespacing="125%">
    <g class="st13">
      <g class="st13">
        <text class="st15" transform="translate(177.7 410.4)"><tspan x="0" y="0">π</tspan></text>
      </g>
    </g>
  </g>
  <g id="text3950" class="st13" sodipodi:linespacing="125%">
    <g class="st13">
      <g class="st13">
        <text class="st11" transform="translate(237.7 415.4)"><tspan x="0" y="0">y</tspan></text>
      </g>
    </g>
  </g>
  <g id="text3956" class="st13" sodipodi:linespacing="125%">
    <g class="st13">
      <g class="st13">
        <text class="st11" transform="translate(199.7 405.4)"><tspan x="0" y="0">*</tspan></text>
      </g>
    </g>
  </g>
  <g id="text4004" class="st13" sodipodi:linespacing="125%">
    <g class="st13">
      <g class="st13">
        <text class="st15" transform="translate(217.7 410.4)"><tspan x="0" y="0">π</tspan></text>
      </g>
    </g>
  </g>
  <g id="text4010" class="st13" sodipodi:linespacing="125%">
    <g class="st13">
      <g class="st13">
        <text class="st11" transform="translate(217.7 310.4)"><tspan x="0" y="0">z</tspan></text>
      </g>
    </g>
  </g>
  <g id="text4016" class="st13" sodipodi:linespacing="125%">
    <g class="st13">
      <g class="st13">
        <text class="st11" transform="translate(239.7 405.4)"><tspan x="0" y="0">*</tspan></text>
      </g>
    </g>
  </g>
  <g id="text4024" class="st13" sodipodi:linespacing="125%">
    <g class="st13">
      <g class="st13">
        <text class="st15" transform="translate(177.7 500.4)"><tspan x="0" y="0">π</tspan></text>
      </g>
    </g>
  </g>
  <g id="text4030" class="st13" sodipodi:linespacing="125%">
    <g class="st13">
      <g class="st13">
        <text class="st11" transform="translate(237.7 505.4)"><tspan x="0" y="0">y</tspan></text>
      </g>
    </g>
  </g>
  <g id="text4044" class="st13" sodipodi:linespacing="125%">
    <g class="st13">
      <g class="st13">
        <text class="st15" transform="translate(217.7 500.4)"><tspan x="0" y="0">π</tspan></text>
      </g>
    </g>
  </g>
  <g id="text4050" class="st13" sodipodi:linespacing="125%">
    <g class="st13">
      <g class="st13">
        <text class="st11" transform="translate(217.7 610.4)"><tspan x="0" y="0">z</tspan></text>
      </g>
    </g>
  </g>
  <g id="text4064" class="st13" sodipodi:linespacing="125%">
    <g class="st13">
      <g class="st13">
        <text class="st15" transform="translate(199.7 607.4)"><tspan x="0" y="0">σ</tspan></text>
      </g>
    </g>
  </g>
  <g id="text4068" class="st13" sodipodi:linespacing="125%">
    <g class="st13">
      <g class="st13">
        <text class="st11" transform="translate(197.7 505.4)"><tspan x="0" y="0">x</tspan></text>
      </g>
    </g>
  </g>
  <rect id="rect4080" class="st0" x="197.7" y="631.4" width="30" height="30"/>
  <rect id="rect4090" class="st0" x="197.7" y="791.4" width="30" height="30"/>
  <path id="path4092" class="st4" d="M257.7,646.4l45,80-45,80" inkscape:connector-curvature="0" sodipodi:nodetypes="ccc"/>
  <path id="path4094" class="st4" d="M167.7,806.4l-45-80,45-80" inkscape:connector-curvature="0" sodipodi:nodetypes="ccc"/>
  <rect id="rect4106" class="st7" x="42.7" y="711.4" width="30" height="30"/>
  <path id="path4114" class="st3" d="M227.7,646.4h30" inkscape:connector-curvature="0" sodipodi:nodetypes="cc"/>
  <path id="path4116" class="st3" d="M167.7,646.4h30" inkscape:connector-curvature="0" sodipodi:nodetypes="cc"/>
  <path id="path4124" class="st3" d="M227.7,806.4h30" inkscape:connector-curvature="0" sodipodi:nodetypes="cc"/>
  <path id="path4126" class="st3" d="M167.7,806.4h30" inkscape:connector-curvature="0" sodipodi:nodetypes="cc"/>
  <path id="path4128" class="st2" d="M122.7,726.4h-50" inkscape:connector-curvature="0" sodipodi:nodetypes="cc"/>
  <path id="path4132" class="st2" d="M42.7,726.4H12.7" inkscape:connector-curvature="0" sodipodi:nodetypes="cc"/>
  <rect id="rect4136" class="st7" x="352.7" y="711.4" width="30" height="30"/>
  <path id="path4140" class="st2" d="M412.7,726.4h-30" inkscape:connector-curvature="0" sodipodi:nodetypes="cc"/>
  <path id="path4144" class="st2" d="M352.7,726.4h-50" inkscape:connector-curvature="0" sodipodi:nodetypes="cc"/>
  <g id="text4158" class="st13" sodipodi:linespacing="125%">
    <g class="st13">
      <g class="st13">
        <text class="st14" transform="translate(40.7 771.4)"><tspan x="0" y="0">2s</tspan></text>
      </g>
    </g>
  </g>
  <g id="text4170" class="st13" sodipodi:linespacing="125%">
    <g class="st13">
      <g class="st13">
        <text class="st14" transform="translate(352.7 771.4)"><tspan x="0" y="0">2s</tspan></text>
      </g>
    </g>
  </g>
  <g id="text4180" class="st13" sodipodi:linespacing="125%">
    <g class="st13">
      <g class="st13">
        <text class="st15" transform="translate(199.7 683.4)"><tspan x="0" y="0">σ</tspan></text>
      </g>
    </g>
  </g>
  <g id="text4184" class="st13" sodipodi:linespacing="125%">
    <g class="st13">
      <g class="st13">
        <text class="st11" transform="translate(217.7 687.4)"><tspan x="0" y="0">s</tspan></text>
      </g>
    </g>
  </g>
  <g id="text4190" class="st13" sodipodi:linespacing="125%">
    <g class="st13">
      <g class="st13">
        <text class="st11" transform="translate(219.7 679.4)"><tspan x="0" y="0">*</tspan></text>
      </g>
    </g>
  </g>
  <g id="text4266" class="st13" sodipodi:linespacing="125%">
    <g class="st13">
      <g class="st13">
        <text class="st15" transform="translate(199.7 783.4)"><tspan x="0" y="0">σ</tspan></text>
      </g>
    </g>
  </g>
  <g id="text4270" class="st13" sodipodi:linespacing="125%">
    <g class="st13">
      <g class="st13">
        <text class="st11" transform="translate(217.7 787.4)"><tspan x="0" y="0">s</tspan></text>
      </g>
    </g>
  </g>
  <path d="M-2.3,0"/>
  <path id="path5880" class="st16" d="M207.7,636.4" inkscape:connector-curvature="0"/>
  <path class="st16" d="M-2.3,0"/>
  <path id="path5882" class="st16" d="M217.7,656.4" inkscape:connector-curvature="0"/>
  <g id="g7856">
    <path id="path5922" class="st8" d="M12.7,460.4v-20" inkscape:connector-curvature="0"/>
    <path id="path7854" class="st4" d="M7.7,445.4l5-5,5,5" inkscape:connector-curvature="0"/>
  </g>
  <g id="g7860">
    <path id="path7862" class="st8" d="M57.7,460.4v-20" inkscape:connector-curvature="0"/>
    <path id="path7864" class="st4" d="M52.7,445.4l5-5,5,5" inkscape:connector-curvature="0"/>
  </g>
  <g id="g7866">
    <path id="path7868" class="st8" d="M97.7,460.4v-20" inkscape:connector-curvature="0"/>
    <path id="path7870" class="st4" d="M92.7,445.4l5-5,5,5" inkscape:connector-curvature="0"/>
  </g>
  <g id="g7872">
    <path id="path7874" class="st8" d="M22.7,440.4v20" inkscape:connector-curvature="0"/>
    <path id="path7876" class="st4" d="M17.7,455.4l5,5,5-5" inkscape:connector-curvature="0"/>
  </g>
  <g id="g7890">
    <path id="path7892" class="st8" d="M327.7,460.4v-20" inkscape:connector-curvature="0"/>
    <path id="path7894" class="st4" d="M322.7,445.4l5-5,5,5" inkscape:connector-curvature="0"/>
  </g>
  <g id="g7896">
    <path id="path7898" class="st8" d="M412.7,440.4v20" inkscape:connector-curvature="0"/>
    <path id="path7900" class="st4" d="M407.7,455.4l5,5,5-5" inkscape:connector-curvature="0"/>
  </g>
  <g id="g7902">
    <path id="path7904" class="st8" d="M367.7,460.4v-20" inkscape:connector-curvature="0"/>
    <path id="path7906" class="st4" d="M362.7,445.4l5-5,5,5" inkscape:connector-curvature="0"/>
  </g>
  <g id="g7908">
    <path id="path7910" class="st8" d="M402.7,460.4v-20" inkscape:connector-curvature="0"/>
    <path id="path7912" class="st4" d="M397.7,445.4l5-5,5,5" inkscape:connector-curvature="0"/>
  </g>
  <g id="g7914">
    <path id="path7916" class="st8" d="M192.7,380.4v-20" inkscape:connector-curvature="0"/>
    <path id="path7918" class="st4" d="M187.7,365.4l5-5,5,5" inkscape:connector-curvature="0"/>
  </g>
  <g id="g7920">
    <path id="path7922" class="st8" d="M232.7,380.4v-20" inkscape:connector-curvature="0"/>
    <path id="path7924" class="st4" d="M227.7,365.4l5-5,5,5" inkscape:connector-curvature="0"/>
  </g>
  <g id="g7926">
    <path id="path7928" class="st8" d="M187.7,540.4v-20" inkscape:connector-curvature="0"/>
    <path id="path7930" class="st4" d="M182.7,525.4l5-5,5,5" inkscape:connector-curvature="0"/>
  </g>
  <g id="g7932">
    <path id="path7934" class="st8" d="M197.7,520.4v20" inkscape:connector-curvature="0"/>
    <path id="path7936" class="st4" d="M192.7,535.4l5,5,5-5" inkscape:connector-curvature="0"/>
  </g>
  <g id="g7938">
    <path id="path7940" class="st8" d="M227.7,540.4v-20" inkscape:connector-curvature="0"/>
    <path id="path7942" class="st4" d="M222.7,525.4l5-5,5,5" inkscape:connector-curvature="0"/>
  </g>
  <g id="g7944">
    <path id="path7946" class="st8" d="M237.7,520.4v20" inkscape:connector-curvature="0"/>
    <path id="path7948" class="st4" d="M232.7,535.4l5,5,5-5" inkscape:connector-curvature="0"/>
  </g>
  <g id="g7950">
    <path id="path7952" class="st8" d="M207.7,580.4v-20" inkscape:connector-curvature="0"/>
    <path id="path7954" class="st4" d="M202.7,565.4l5-5,5,5" inkscape:connector-curvature="0"/>
  </g>
  <g id="g7956">
    <path id="path7958" class="st8" d="M217.7,560.4v20" inkscape:connector-curvature="0"/>
    <path id="path7960" class="st4" d="M212.7,575.4l5,5,5-5" inkscape:connector-curvature="0"/>
  </g>
  <g id="g7962">
    <path id="path7964" class="st8" d="M207.7,656.4v-20" inkscape:connector-curvature="0"/>
    <path id="path7966" class="st4" d="M202.7,641.4l5-5,5,5" inkscape:connector-curvature="0"/>
  </g>
  <g id="g7968">
    <path id="path7970" class="st8" d="M217.7,636.4v20" inkscape:connector-curvature="0"/>
    <path id="path7972" class="st4" d="M212.7,651.4l5,5,5-5" inkscape:connector-curvature="0"/>
  </g>
  <g id="g7974">
    <path id="path7976" class="st8" d="M207.7,816.4v-20" inkscape:connector-curvature="0"/>
    <path id="path7978" class="st4" d="M202.7,801.4l5-5,5,5" inkscape:connector-curvature="0"/>
  </g>
  <g id="g7980">
    <path id="path7982" class="st8" d="M217.7,796.4v20" inkscape:connector-curvature="0"/>
    <path id="path7984" class="st4" d="M212.7,811.4l5,5,5-5" inkscape:connector-curvature="0"/>
  </g>
  <g id="g7986">
    <path id="path7988" class="st8" d="M52.7,736.4v-20" inkscape:connector-curvature="0"/>
    <path id="path7990" class="st4" d="M47.7,721.4l5-5,5,5" inkscape:connector-curvature="0"/>
  </g>
  <g id="g7992">
    <path id="path7994" class="st8" d="M62.7,716.4v20" inkscape:connector-curvature="0"/>
    <path id="path7996" class="st4" d="M57.7,731.4l5,5,5-5" inkscape:connector-curvature="0"/>
  </g>
  <g id="g7998">
    <path id="path8000" class="st8" d="M362.7,736.4v-20" inkscape:connector-curvature="0"/>
    <path id="path8002" class="st4" d="M357.7,721.4l5-5,5,5" inkscape:connector-curvature="0"/>
  </g>
  <g id="g8004">
    <path id="path8006" class="st8" d="M372.7,716.4v20" inkscape:connector-curvature="0"/>
    <path id="path8008" class="st4" d="M367.7,731.4l5,5,5-5" inkscape:connector-curvature="0"/>
  </g>
  <rect id="rect38011" class="st7" x="121.5" y="94.4" width="30" height="30"/>
  <rect id="rect38031" class="st7" x="81.5" y="94.4" width="30" height="30"/>
  <rect id="rect38051" class="st7" x="41.5" y="94.4" width="30" height="30"/>
  <g id="text38431" class="st13" sodipodi:linespacing="125%">
    <g class="st13">
      <g class="st13">
        <text class="st14" transform="translate(81 79.4)"><tspan x="0" y="0">2p</tspan></text>
      </g>
    </g>
  </g>
  <g id="text38511" class="st13" sodipodi:linespacing="125%">
    <g class="st13">
      <g class="st13">
        <text class="st14" transform="translate(48.5 149.4)"><tspan x="0" y="0">x</tspan></text>
      </g>
    </g>
  </g>
  <g id="text38551" class="st13" sodipodi:linespacing="125%">
    <g class="st13">
      <g class="st13">
        <text class="st14" transform="translate(88.5 149.4)"><tspan x="0" y="0">y</tspan></text>
      </g>
    </g>
  </g>
  <g id="text38591" class="st13" sodipodi:linespacing="125%">
    <g class="st13">
      <g class="st13">
        <text class="st14" transform="translate(128.5 149.4)"><tspan x="0" y="0">z</tspan></text>
      </g>
    </g>
  </g>
  <g id="g78561">
    <path id="path59221" class="st8" d="M51.5,119.4v-20" inkscape:connector-curvature="0"/>
    <path id="path78541" class="st4" d="M46.5,104.4l5-5,5,5" inkscape:connector-curvature="0"/>
  </g>
  <g id="g78601">
    <path id="path78621" class="st8" d="M96.5,119.4v-20" inkscape:connector-curvature="0"/>
    <path id="path78641" class="st4" d="M91.5,104.4l5-5,5,5" inkscape:connector-curvature="0"/>
  </g>
  <g id="g78661">
    <path id="path78681" class="st8" d="M136.5,119.4v-20" inkscape:connector-curvature="0"/>
    <path id="path78701" class="st4" d="M131.5,104.4l5-5,5,5" inkscape:connector-curvature="0"/>
  </g>
  <g id="g78721">
    <path id="path78741" class="st8" d="M61.5,99.4v20" inkscape:connector-curvature="0"/>
    <path id="path78761" class="st4" d="M56.5,114.4l5,5,5-5" inkscape:connector-curvature="0"/>
  </g>
  <rect id="rect41061" class="st7" x="83" y="177.2" width="30" height="30"/>
  <g id="text41581" class="st13" sodipodi:linespacing="125%">
    <g class="st13">
      <g class="st13">
        <text class="st14" transform="translate(80.1 237.5)"><tspan x="0" y="0">2s</tspan></text>
      </g>
    </g>
  </g>
  <g id="g79861">
    <path id="path79881" class="st8" d="M93,202.2v-20" inkscape:connector-curvature="0"/>
    <path id="path79901" class="st4" d="M88,187.2l5-5,5,5" inkscape:connector-curvature="0"/>
  </g>
  <g id="g79921">
    <path id="path79941" class="st8" d="M103,182.2v20" inkscape:connector-curvature="0"/>
    <path id="path79961" class="st4" d="M98,197.2l5,5,5-5" inkscape:connector-curvature="0"/>
  </g>
  <rect id="rect38012" class="st7" x="357.7" y="92" width="30" height="30"/>
  <rect id="rect38052" class="st7" x="277.7" y="92" width="30" height="30"/>
  <g id="text38432" class="st13" sodipodi:linespacing="125%">
    <g class="st13">
      <g class="st13">
        <text class="st14" transform="translate(317.2 77)"><tspan x="0" y="0">2p</tspan></text>
      </g>
    </g>
  </g>
  <g id="text38512" class="st13" sodipodi:linespacing="125%">
    <g class="st13">
      <g class="st13">
        <text class="st14" transform="translate(284.7 147)"><tspan x="0" y="0">x</tspan></text>
      </g>
    </g>
  </g>
  <g id="text38552" class="st13" sodipodi:linespacing="125%">
    <g class="st13">
      <g class="st13">
        <text class="st14" transform="translate(324.7 147)"><tspan x="0" y="0">y</tspan></text>
      </g>
    </g>
  </g>
  <g id="text38592" class="st13" sodipodi:linespacing="125%">
    <g class="st13">
      <g class="st13">
        <text class="st14" transform="translate(364.7 147)"><tspan x="0" y="0">z</tspan></text>
      </g>
    </g>
  </g>
  <g id="g78562">
    <path id="path59222" class="st8" d="M287.7,117v-20" inkscape:connector-curvature="0"/>
    <path id="path78542" class="st4" d="M282.7,102l5-5,5,5" inkscape:connector-curvature="0"/>
  </g>
  <g id="g78722">
    <path id="path78742" class="st8" d="M297.7,97v20" inkscape:connector-curvature="0"/>
    <path id="path78762" class="st4" d="M292.7,112l5,5,5-5" inkscape:connector-curvature="0"/>
  </g>
  <rect id="rect41062" class="st7" x="319.1" y="174.8" width="30" height="30"/>
  <g id="text41582" class="st13" sodipodi:linespacing="125%">
    <g class="st13">
      <g class="st13">
        <text class="st14" transform="translate(316.3 235.2)"><tspan x="0" y="0">2s</tspan></text>
      </g>
    </g>
  </g>
  <g id="g79862">
    <path id="path79882" class="st8" d="M329.1,199.8v-20" inkscape:connector-curvature="0"/>
    <path id="path79902" class="st4" d="M324.1,184.8l5-5,5,5" inkscape:connector-curvature="0"/>
  </g>
  <g id="g79922">
    <path id="path79942" class="st8" d="M339.1,179.8v20" inkscape:connector-curvature="0"/>
    <path id="path79962" class="st4" d="M334.1,194.8l5,5,5-5" inkscape:connector-curvature="0"/>
  </g>
  <rect id="rect38053" class="st7" x="317.7" y="92" width="30" height="30"/>
  <g id="g78563">
    <path id="path59223" class="st8" d="M327.7,117v-20" inkscape:connector-curvature="0"/>
    <path id="path78543" class="st4" d="M322.7,102l5-5,5,5" inkscape:connector-curvature="0"/>
  </g>
  <g id="g78723">
    <path id="path78743" class="st8" d="M337.7,97v20" inkscape:connector-curvature="0"/>
    <path id="path78763" class="st4" d="M332.7,112l5,5,5-5" inkscape:connector-curvature="0"/>
  </g>
  <g>
    <line class="st4" x1="2.7" y1="269.5" x2="8.7" y2="269.5"/>
    <line class="st1" x1="20.4" y1="269.5" x2="410.9" y2="269.5"/>
    <line class="st4" x1="416.7" y1="269.5" x2="422.7" y2="269.5"/>
  </g>
  <g class="st13">
    <g class="st13">
      <text class="st12" transform="translate(7.7 35.4)"><tspan x="0" y="0">Spin polarized</tspan></text>
    </g>
  </g>
  <g class="st13">
    <g class="st13">
      <text class="st12" transform="translate(218.8 35.4)"><tspan x="0" y="0">Spin degenerate</tspan></text>
    </g>
  </g>
</svg>