<?xml version="1.0" encoding="utf-8" standalone="no"?>
<!DOCTYPE svg PUBLIC "-//W3C//DTD SVG 1.1//EN"
  "http://www.w3.org/Graphics/SVG/1.1/DTD/svg11.dtd">
<svg xmlns:xlink="http://www.w3.org/1999/xlink" width="441.58125pt" height="215.106375pt" viewBox="0 0 441.58125 215.106375" xmlns="http://www.w3.org/2000/svg" version="1.1">
 <metadata>
  <rdf:RDF xmlns:dc="http://purl.org/dc/elements/1.1/" xmlns:cc="http://creativecommons.org/ns#" xmlns:rdf="http://www.w3.org/1999/02/22-rdf-syntax-ns#">
   <cc:Work>
    <dc:type rdf:resource="http://purl.org/dc/dcmitype/StillImage"/>
    <dc:date>2024-09-19T16:13:38.602062</dc:date>
    <dc:format>image/svg+xml</dc:format>
    <dc:creator>
     <cc:Agent>
      <dc:title>Matplotlib v3.7.2, https://matplotlib.org/</dc:title>
     </cc:Agent>
    </dc:creator>
   </cc:Work>
  </rdf:RDF>
 </metadata>
 <defs>
  <style type="text/css">*{stroke-linejoin: round; stroke-linecap: butt}</style>
 </defs>
 <g id="figure_1">
  <g id="patch_1">
   <path d="M 0 215.106375 
L 441.58125 215.106375 
L 441.58125 -0 
L 0 -0 
L 0 215.106375 
z
" style="fill: none"/>
  </g>
  <g id="axes_1">
   <g id="patch_2">
    <path d="M 43.78125 177.550125 
L 221.326705 177.550125 
L 221.326705 22.318125 
L 43.78125 22.318125 
L 43.78125 177.550125 
z
" style="fill: none"/>
   </g>
   <g id="matplotlib.axis_1">
    <g id="xtick_1">
     <g id="line2d_1">
      <defs>
       <path id="m0c422404b6" d="M 0 0 
L 0 3.5 
" style="stroke: #000000; stroke-width: 0.8"/>
      </defs>
      <g>
       <use xlink:href="#m0c422404b6" x="105.153735" y="177.550125" style="stroke: #000000; stroke-width: 0.8"/>
      </g>
     </g>
     <g id="text_1">
      <!-- −10 -->
      <g transform="translate(94.601391 192.148562) scale(0.1 -0.1)">
       <defs>
        <path id="DejaVuSans-2212" d="M 678 2272 
L 4684 2272 
L 4684 1741 
L 678 1741 
L 678 2272 
z
" transform="scale(0.015625)"/>
        <path id="DejaVuSans-31" d="M 794 531 
L 1825 531 
L 1825 4091 
L 703 3866 
L 703 4441 
L 1819 4666 
L 2450 4666 
L 2450 531 
L 3481 531 
L 3481 0 
L 794 0 
L 794 531 
z
" transform="scale(0.015625)"/>
        <path id="DejaVuSans-30" d="M 2034 4250 
Q 1547 4250 1301 3770 
Q 1056 3291 1056 2328 
Q 1056 1369 1301 889 
Q 1547 409 2034 409 
Q 2525 409 2770 889 
Q 3016 1369 3016 2328 
Q 3016 3291 2770 3770 
Q 2525 4250 2034 4250 
z
M 2034 4750 
Q 2819 4750 3233 4129 
Q 3647 3509 3647 2328 
Q 3647 1150 3233 529 
Q 2819 -91 2034 -91 
Q 1250 -91 836 529 
Q 422 1150 422 2328 
Q 422 3509 836 4129 
Q 1250 4750 2034 4750 
z
" transform="scale(0.015625)"/>
       </defs>
       <use xlink:href="#DejaVuSans-2212"/>
       <use xlink:href="#DejaVuSans-31" x="83.789062"/>
       <use xlink:href="#DejaVuSans-30" x="147.412109"/>
      </g>
     </g>
    </g>
    <g id="xtick_2">
     <g id="line2d_2">
      <g>
       <use xlink:href="#m0c422404b6" x="173.490776" y="177.550125" style="stroke: #000000; stroke-width: 0.8"/>
      </g>
     </g>
     <g id="text_2">
      <!-- 0 -->
      <g transform="translate(170.309526 192.148562) scale(0.1 -0.1)">
       <use xlink:href="#DejaVuSans-30"/>
      </g>
     </g>
    </g>
    <g id="text_3">
     <!-- E - E$_\mathrm{Fermi}$ (eV) -->
     <g transform="translate(99.053977 205.826687) scale(0.1 -0.1)">
      <defs>
       <path id="DejaVuSans-45" d="M 628 4666 
L 3578 4666 
L 3578 4134 
L 1259 4134 
L 1259 2753 
L 3481 2753 
L 3481 2222 
L 1259 2222 
L 1259 531 
L 3634 531 
L 3634 0 
L 628 0 
L 628 4666 
z
" transform="scale(0.015625)"/>
       <path id="DejaVuSans-20" transform="scale(0.015625)"/>
       <path id="DejaVuSans-2d" d="M 313 2009 
L 1997 2009 
L 1997 1497 
L 313 1497 
L 313 2009 
z
" transform="scale(0.015625)"/>
       <path id="DejaVuSans-46" d="M 628 4666 
L 3309 4666 
L 3309 4134 
L 1259 4134 
L 1259 2759 
L 3109 2759 
L 3109 2228 
L 1259 2228 
L 1259 0 
L 628 0 
L 628 4666 
z
" transform="scale(0.015625)"/>
       <path id="DejaVuSans-65" d="M 3597 1894 
L 3597 1613 
L 953 1613 
Q 991 1019 1311 708 
Q 1631 397 2203 397 
Q 2534 397 2845 478 
Q 3156 559 3463 722 
L 3463 178 
Q 3153 47 2828 -22 
Q 2503 -91 2169 -91 
Q 1331 -91 842 396 
Q 353 884 353 1716 
Q 353 2575 817 3079 
Q 1281 3584 2069 3584 
Q 2775 3584 3186 3129 
Q 3597 2675 3597 1894 
z
M 3022 2063 
Q 3016 2534 2758 2815 
Q 2500 3097 2075 3097 
Q 1594 3097 1305 2825 
Q 1016 2553 972 2059 
L 3022 2063 
z
" transform="scale(0.015625)"/>
       <path id="DejaVuSans-72" d="M 2631 2963 
Q 2534 3019 2420 3045 
Q 2306 3072 2169 3072 
Q 1681 3072 1420 2755 
Q 1159 2438 1159 1844 
L 1159 0 
L 581 0 
L 581 3500 
L 1159 3500 
L 1159 2956 
Q 1341 3275 1631 3429 
Q 1922 3584 2338 3584 
Q 2397 3584 2469 3576 
Q 2541 3569 2628 3553 
L 2631 2963 
z
" transform="scale(0.015625)"/>
       <path id="DejaVuSans-6d" d="M 3328 2828 
Q 3544 3216 3844 3400 
Q 4144 3584 4550 3584 
Q 5097 3584 5394 3201 
Q 5691 2819 5691 2113 
L 5691 0 
L 5113 0 
L 5113 2094 
Q 5113 2597 4934 2840 
Q 4756 3084 4391 3084 
Q 3944 3084 3684 2787 
Q 3425 2491 3425 1978 
L 3425 0 
L 2847 0 
L 2847 2094 
Q 2847 2600 2669 2842 
Q 2491 3084 2119 3084 
Q 1678 3084 1418 2786 
Q 1159 2488 1159 1978 
L 1159 0 
L 581 0 
L 581 3500 
L 1159 3500 
L 1159 2956 
Q 1356 3278 1631 3431 
Q 1906 3584 2284 3584 
Q 2666 3584 2933 3390 
Q 3200 3197 3328 2828 
z
" transform="scale(0.015625)"/>
       <path id="DejaVuSans-69" d="M 603 3500 
L 1178 3500 
L 1178 0 
L 603 0 
L 603 3500 
z
M 603 4863 
L 1178 4863 
L 1178 4134 
L 603 4134 
L 603 4863 
z
" transform="scale(0.015625)"/>
       <path id="DejaVuSans-28" d="M 1984 4856 
Q 1566 4138 1362 3434 
Q 1159 2731 1159 2009 
Q 1159 1288 1364 580 
Q 1569 -128 1984 -844 
L 1484 -844 
Q 1016 -109 783 600 
Q 550 1309 550 2009 
Q 550 2706 781 3412 
Q 1013 4119 1484 4856 
L 1984 4856 
z
" transform="scale(0.015625)"/>
       <path id="DejaVuSans-56" d="M 1831 0 
L 50 4666 
L 709 4666 
L 2188 738 
L 3669 4666 
L 4325 4666 
L 2547 0 
L 1831 0 
z
" transform="scale(0.015625)"/>
       <path id="DejaVuSans-29" d="M 513 4856 
L 1013 4856 
Q 1481 4119 1714 3412 
Q 1947 2706 1947 2009 
Q 1947 1309 1714 600 
Q 1481 -109 1013 -844 
L 513 -844 
Q 928 -128 1133 580 
Q 1338 1288 1338 2009 
Q 1338 2731 1133 3434 
Q 928 4138 513 4856 
z
" transform="scale(0.015625)"/>
      </defs>
      <use xlink:href="#DejaVuSans-45" transform="translate(0 0.125)"/>
      <use xlink:href="#DejaVuSans-20" transform="translate(63.183594 0.125)"/>
      <use xlink:href="#DejaVuSans-2d" transform="translate(94.970703 0.125)"/>
      <use xlink:href="#DejaVuSans-20" transform="translate(131.054688 0.125)"/>
      <use xlink:href="#DejaVuSans-45" transform="translate(162.841797 0.125)"/>
      <use xlink:href="#DejaVuSans-46" transform="translate(226.982422 -16.28125) scale(0.7)"/>
      <use xlink:href="#DejaVuSans-65" transform="translate(267.246094 -16.28125) scale(0.7)"/>
      <use xlink:href="#DejaVuSans-72" transform="translate(310.3125 -16.28125) scale(0.7)"/>
      <use xlink:href="#DejaVuSans-6d" transform="translate(339.091797 -16.28125) scale(0.7)"/>
      <use xlink:href="#DejaVuSans-69" transform="translate(407.280273 -16.28125) scale(0.7)"/>
      <use xlink:href="#DejaVuSans-20" transform="translate(429.462891 0.125)"/>
      <use xlink:href="#DejaVuSans-28" transform="translate(461.25 0.125)"/>
      <use xlink:href="#DejaVuSans-65" transform="translate(500.263672 0.125)"/>
      <use xlink:href="#DejaVuSans-56" transform="translate(561.787109 0.125)"/>
      <use xlink:href="#DejaVuSans-29" transform="translate(630.195312 0.125)"/>
     </g>
    </g>
   </g>
   <g id="matplotlib.axis_2">
    <g id="ytick_1">
     <g id="line2d_3">
      <defs>
       <path id="me33e90fe6c" d="M 0 0 
L -3.5 0 
" style="stroke: #000000; stroke-width: 0.8"/>
      </defs>
      <g>
       <use xlink:href="#me33e90fe6c" x="43.78125" y="164.614125" style="stroke: #000000; stroke-width: 0.8"/>
      </g>
     </g>
     <g id="text_4">
      <!-- 0.0 -->
      <g transform="translate(20.878125 168.413344) scale(0.1 -0.1)">
       <defs>
        <path id="DejaVuSans-2e" d="M 684 794 
L 1344 794 
L 1344 0 
L 684 0 
L 684 794 
z
" transform="scale(0.015625)"/>
       </defs>
       <use xlink:href="#DejaVuSans-30"/>
       <use xlink:href="#DejaVuSans-2e" x="63.623047"/>
       <use xlink:href="#DejaVuSans-30" x="95.410156"/>
      </g>
     </g>
    </g>
    <g id="ytick_2">
     <g id="line2d_4">
      <g>
       <use xlink:href="#me33e90fe6c" x="43.78125" y="138.742125" style="stroke: #000000; stroke-width: 0.8"/>
      </g>
     </g>
     <g id="text_5">
      <!-- 0.2 -->
      <g transform="translate(20.878125 142.541344) scale(0.1 -0.1)">
       <defs>
        <path id="DejaVuSans-32" d="M 1228 531 
L 3431 531 
L 3431 0 
L 469 0 
L 469 531 
Q 828 903 1448 1529 
Q 2069 2156 2228 2338 
Q 2531 2678 2651 2914 
Q 2772 3150 2772 3378 
Q 2772 3750 2511 3984 
Q 2250 4219 1831 4219 
Q 1534 4219 1204 4116 
Q 875 4013 500 3803 
L 500 4441 
Q 881 4594 1212 4672 
Q 1544 4750 1819 4750 
Q 2544 4750 2975 4387 
Q 3406 4025 3406 3419 
Q 3406 3131 3298 2873 
Q 3191 2616 2906 2266 
Q 2828 2175 2409 1742 
Q 1991 1309 1228 531 
z
" transform="scale(0.015625)"/>
       </defs>
       <use xlink:href="#DejaVuSans-30"/>
       <use xlink:href="#DejaVuSans-2e" x="63.623047"/>
       <use xlink:href="#DejaVuSans-32" x="95.410156"/>
      </g>
     </g>
    </g>
    <g id="ytick_3">
     <g id="line2d_5">
      <g>
       <use xlink:href="#me33e90fe6c" x="43.78125" y="112.870125" style="stroke: #000000; stroke-width: 0.8"/>
      </g>
     </g>
     <g id="text_6">
      <!-- 0.4 -->
      <g transform="translate(20.878125 116.669344) scale(0.1 -0.1)">
       <defs>
        <path id="DejaVuSans-34" d="M 2419 4116 
L 825 1625 
L 2419 1625 
L 2419 4116 
z
M 2253 4666 
L 3047 4666 
L 3047 1625 
L 3713 1625 
L 3713 1100 
L 3047 1100 
L 3047 0 
L 2419 0 
L 2419 1100 
L 313 1100 
L 313 1709 
L 2253 4666 
z
" transform="scale(0.015625)"/>
       </defs>
       <use xlink:href="#DejaVuSans-30"/>
       <use xlink:href="#DejaVuSans-2e" x="63.623047"/>
       <use xlink:href="#DejaVuSans-34" x="95.410156"/>
      </g>
     </g>
    </g>
    <g id="ytick_4">
     <g id="line2d_6">
      <g>
       <use xlink:href="#me33e90fe6c" x="43.78125" y="86.998125" style="stroke: #000000; stroke-width: 0.8"/>
      </g>
     </g>
     <g id="text_7">
      <!-- 0.6 -->
      <g transform="translate(20.878125 90.797344) scale(0.1 -0.1)">
       <defs>
        <path id="DejaVuSans-36" d="M 2113 2584 
Q 1688 2584 1439 2293 
Q 1191 2003 1191 1497 
Q 1191 994 1439 701 
Q 1688 409 2113 409 
Q 2538 409 2786 701 
Q 3034 994 3034 1497 
Q 3034 2003 2786 2293 
Q 2538 2584 2113 2584 
z
M 3366 4563 
L 3366 3988 
Q 3128 4100 2886 4159 
Q 2644 4219 2406 4219 
Q 1781 4219 1451 3797 
Q 1122 3375 1075 2522 
Q 1259 2794 1537 2939 
Q 1816 3084 2150 3084 
Q 2853 3084 3261 2657 
Q 3669 2231 3669 1497 
Q 3669 778 3244 343 
Q 2819 -91 2113 -91 
Q 1303 -91 875 529 
Q 447 1150 447 2328 
Q 447 3434 972 4092 
Q 1497 4750 2381 4750 
Q 2619 4750 2861 4703 
Q 3103 4656 3366 4563 
z
" transform="scale(0.015625)"/>
       </defs>
       <use xlink:href="#DejaVuSans-30"/>
       <use xlink:href="#DejaVuSans-2e" x="63.623047"/>
       <use xlink:href="#DejaVuSans-36" x="95.410156"/>
      </g>
     </g>
    </g>
    <g id="ytick_5">
     <g id="line2d_7">
      <g>
       <use xlink:href="#me33e90fe6c" x="43.78125" y="61.126125" style="stroke: #000000; stroke-width: 0.8"/>
      </g>
     </g>
     <g id="text_8">
      <!-- 0.8 -->
      <g transform="translate(20.878125 64.925344) scale(0.1 -0.1)">
       <defs>
        <path id="DejaVuSans-38" d="M 2034 2216 
Q 1584 2216 1326 1975 
Q 1069 1734 1069 1313 
Q 1069 891 1326 650 
Q 1584 409 2034 409 
Q 2484 409 2743 651 
Q 3003 894 3003 1313 
Q 3003 1734 2745 1975 
Q 2488 2216 2034 2216 
z
M 1403 2484 
Q 997 2584 770 2862 
Q 544 3141 544 3541 
Q 544 4100 942 4425 
Q 1341 4750 2034 4750 
Q 2731 4750 3128 4425 
Q 3525 4100 3525 3541 
Q 3525 3141 3298 2862 
Q 3072 2584 2669 2484 
Q 3125 2378 3379 2068 
Q 3634 1759 3634 1313 
Q 3634 634 3220 271 
Q 2806 -91 2034 -91 
Q 1263 -91 848 271 
Q 434 634 434 1313 
Q 434 1759 690 2068 
Q 947 2378 1403 2484 
z
M 1172 3481 
Q 1172 3119 1398 2916 
Q 1625 2713 2034 2713 
Q 2441 2713 2670 2916 
Q 2900 3119 2900 3481 
Q 2900 3844 2670 4047 
Q 2441 4250 2034 4250 
Q 1625 4250 1398 4047 
Q 1172 3844 1172 3481 
z
" transform="scale(0.015625)"/>
       </defs>
       <use xlink:href="#DejaVuSans-30"/>
       <use xlink:href="#DejaVuSans-2e" x="63.623047"/>
       <use xlink:href="#DejaVuSans-38" x="95.410156"/>
      </g>
     </g>
    </g>
    <g id="ytick_6">
     <g id="line2d_8">
      <g>
       <use xlink:href="#me33e90fe6c" x="43.78125" y="35.254125" style="stroke: #000000; stroke-width: 0.8"/>
      </g>
     </g>
     <g id="text_9">
      <!-- 1.0 -->
      <g transform="translate(20.878125 39.053344) scale(0.1 -0.1)">
       <use xlink:href="#DejaVuSans-31"/>
       <use xlink:href="#DejaVuSans-2e" x="63.623047"/>
       <use xlink:href="#DejaVuSans-30" x="95.410156"/>
      </g>
     </g>
    </g>
    <g id="text_10">
     <!-- DOS -->
     <g transform="translate(14.798438 110.894281) rotate(-90) scale(0.1 -0.1)">
      <defs>
       <path id="DejaVuSans-44" d="M 1259 4147 
L 1259 519 
L 2022 519 
Q 2988 519 3436 956 
Q 3884 1394 3884 2338 
Q 3884 3275 3436 3711 
Q 2988 4147 2022 4147 
L 1259 4147 
z
M 628 4666 
L 1925 4666 
Q 3281 4666 3915 4102 
Q 4550 3538 4550 2338 
Q 4550 1131 3912 565 
Q 3275 0 1925 0 
L 628 0 
L 628 4666 
z
" transform="scale(0.015625)"/>
       <path id="DejaVuSans-4f" d="M 2522 4238 
Q 1834 4238 1429 3725 
Q 1025 3213 1025 2328 
Q 1025 1447 1429 934 
Q 1834 422 2522 422 
Q 3209 422 3611 934 
Q 4013 1447 4013 2328 
Q 4013 3213 3611 3725 
Q 3209 4238 2522 4238 
z
M 2522 4750 
Q 3503 4750 4090 4092 
Q 4678 3434 4678 2328 
Q 4678 1225 4090 567 
Q 3503 -91 2522 -91 
Q 1538 -91 948 565 
Q 359 1222 359 2328 
Q 359 3434 948 4092 
Q 1538 4750 2522 4750 
z
" transform="scale(0.015625)"/>
       <path id="DejaVuSans-53" d="M 3425 4513 
L 3425 3897 
Q 3066 4069 2747 4153 
Q 2428 4238 2131 4238 
Q 1616 4238 1336 4038 
Q 1056 3838 1056 3469 
Q 1056 3159 1242 3001 
Q 1428 2844 1947 2747 
L 2328 2669 
Q 3034 2534 3370 2195 
Q 3706 1856 3706 1288 
Q 3706 609 3251 259 
Q 2797 -91 1919 -91 
Q 1588 -91 1214 -16 
Q 841 59 441 206 
L 441 856 
Q 825 641 1194 531 
Q 1563 422 1919 422 
Q 2459 422 2753 634 
Q 3047 847 3047 1241 
Q 3047 1584 2836 1778 
Q 2625 1972 2144 2069 
L 1759 2144 
Q 1053 2284 737 2584 
Q 422 2884 422 3419 
Q 422 4038 858 4394 
Q 1294 4750 2059 4750 
Q 2388 4750 2728 4690 
Q 3069 4631 3425 4513 
z
" transform="scale(0.015625)"/>
      </defs>
      <use xlink:href="#DejaVuSans-44"/>
      <use xlink:href="#DejaVuSans-4f" x="77.001953"/>
      <use xlink:href="#DejaVuSans-53" x="155.712891"/>
     </g>
    </g>
   </g>
   <g id="LineCollection_1">
    <path d="M 50.614954 164.614125 
L 50.614954 35.254125 
" clip-path="url(#p88edbf973c)" style="fill: none; stroke: #1f77b4; stroke-width: 1.5"/>
    <path d="M 134.765876 164.614125 
L 134.765876 35.254125 
" clip-path="url(#p88edbf973c)" style="fill: none; stroke: #1f77b4; stroke-width: 1.5"/>
    <path d="M 158.643201 164.614125 
L 158.643201 35.254125 
" clip-path="url(#p88edbf973c)" style="fill: none; stroke: #1f77b4; stroke-width: 1.5"/>
    <path d="M 173.490776 164.614125 
L 173.490776 35.254125 
" clip-path="url(#p88edbf973c)" style="fill: none; stroke: #1f77b4; stroke-width: 1.5"/>
    <path d="M 215.322544 164.614125 
L 215.322544 35.254125 
" clip-path="url(#p88edbf973c)" style="fill: none; stroke: #1f77b4; stroke-width: 1.5"/>
    <path d="M 222.690746 164.614125 
L 222.690746 35.254125 
" clip-path="url(#p88edbf973c)" style="fill: none; stroke: #1f77b4; stroke-width: 1.5"/>
    <path d="M 224.070765 164.614125 
L 224.070765 35.254125 
" clip-path="url(#p88edbf973c)" style="fill: none; stroke: #1f77b4; stroke-width: 1.5"/>
    <path d="M 224.681773 164.614125 
L 224.681773 35.254125 
" clip-path="url(#p88edbf973c)" style="fill: none; stroke: #1f77b4; stroke-width: 1.5"/>
    <path d="M 224.72868 164.614125 
L 224.72868 35.254125 
" clip-path="url(#p88edbf973c)" style="fill: none; stroke: #1f77b4; stroke-width: 1.5"/>
    <path d="M 224.94593 164.614125 
L 224.94593 35.254125 
" clip-path="url(#p88edbf973c)" style="fill: none; stroke: #1f77b4; stroke-width: 1.5"/>
    <path d="M 225.073877 164.614125 
L 225.073877 35.254125 
" clip-path="url(#p88edbf973c)" style="fill: none; stroke: #1f77b4; stroke-width: 1.5"/>
    <path d="M 225.79374 164.614125 
L 225.79374 35.254125 
" clip-path="url(#p88edbf973c)" style="fill: none; stroke: #1f77b4; stroke-width: 1.5"/>
    <path d="M 226.07861 164.614125 
L 226.07861 35.254125 
" clip-path="url(#p88edbf973c)" style="fill: none; stroke: #1f77b4; stroke-width: 1.5"/>
    <path d="M 226.8007 164.614125 
L 226.8007 35.254125 
" clip-path="url(#p88edbf973c)" style="fill: none; stroke: #1f77b4; stroke-width: 1.5"/>
    <path d="M 226.922893 164.614125 
L 226.922893 35.254125 
" clip-path="url(#p88edbf973c)" style="fill: none; stroke: #1f77b4; stroke-width: 1.5"/>
    <path d="M 227.455348 164.614125 
L 227.455348 35.254125 
" clip-path="url(#p88edbf973c)" style="fill: none; stroke: #1f77b4; stroke-width: 1.5"/>
    <path d="M 227.473225 164.614125 
L 227.473225 35.254125 
" clip-path="url(#p88edbf973c)" style="fill: none; stroke: #1f77b4; stroke-width: 1.5"/>
    <path d="M 227.500635 164.614125 
L 227.500635 35.254125 
" clip-path="url(#p88edbf973c)" style="fill: none; stroke: #1f77b4; stroke-width: 1.5"/>
    <path d="M 227.52335 164.614125 
L 227.52335 35.254125 
" clip-path="url(#p88edbf973c)" style="fill: none; stroke: #1f77b4; stroke-width: 1.5"/>
    <path d="M 227.554744 164.614125 
L 227.554744 35.254125 
" clip-path="url(#p88edbf973c)" style="fill: none; stroke: #1f77b4; stroke-width: 1.5"/>
    <path d="M 227.615605 164.614125 
L 227.615605 35.254125 
" clip-path="url(#p88edbf973c)" style="fill: none; stroke: #1f77b4; stroke-width: 1.5"/>
    <path d="M 227.638136 164.614125 
L 227.638136 35.254125 
" clip-path="url(#p88edbf973c)" style="fill: none; stroke: #1f77b4; stroke-width: 1.5"/>
    <path d="M 227.710252 164.614125 
L 227.710252 35.254125 
" clip-path="url(#p88edbf973c)" style="fill: none; stroke: #1f77b4; stroke-width: 1.5"/>
    <path d="M 229.001098 164.614125 
L 229.001098 35.254125 
" clip-path="url(#p88edbf973c)" style="fill: none; stroke: #1f77b4; stroke-width: 1.5"/>
    <path d="M 229.047136 164.614125 
L 229.047136 35.254125 
" clip-path="url(#p88edbf973c)" style="fill: none; stroke: #1f77b4; stroke-width: 1.5"/>
    <path d="M 229.640042 164.614125 
L 229.640042 35.254125 
" clip-path="url(#p88edbf973c)" style="fill: none; stroke: #1f77b4; stroke-width: 1.5"/>
    <path d="M 229.687871 164.614125 
L 229.687871 35.254125 
" clip-path="url(#p88edbf973c)" style="fill: none; stroke: #1f77b4; stroke-width: 1.5"/>
    <path d="M 230.006664 164.614125 
L 230.006664 35.254125 
" clip-path="url(#p88edbf973c)" style="fill: none; stroke: #1f77b4; stroke-width: 1.5"/>
    <path d="M 230.01401 164.614125 
L 230.01401 35.254125 
" clip-path="url(#p88edbf973c)" style="fill: none; stroke: #1f77b4; stroke-width: 1.5"/>
    <path d="M 230.054226 164.614125 
L 230.054226 35.254125 
" clip-path="url(#p88edbf973c)" style="fill: none; stroke: #1f77b4; stroke-width: 1.5"/>
    <path d="M 230.212262 164.614125 
L 230.212262 35.254125 
" clip-path="url(#p88edbf973c)" style="fill: none; stroke: #1f77b4; stroke-width: 1.5"/>
    <path d="M 231.213564 164.614125 
L 231.213564 35.254125 
" clip-path="url(#p88edbf973c)" style="fill: none; stroke: #1f77b4; stroke-width: 1.5"/>
    <path d="M 231.329081 164.614125 
L 231.329081 35.254125 
" clip-path="url(#p88edbf973c)" style="fill: none; stroke: #1f77b4; stroke-width: 1.5"/>
    <path d="M 232.097442 164.614125 
L 232.097442 35.254125 
" clip-path="url(#p88edbf973c)" style="fill: none; stroke: #1f77b4; stroke-width: 1.5"/>
    <path d="M 232.203624 164.614125 
L 232.203624 35.254125 
" clip-path="url(#p88edbf973c)" style="fill: none; stroke: #1f77b4; stroke-width: 1.5"/>
    <path d="M 232.37774 164.614125 
L 232.37774 35.254125 
" clip-path="url(#p88edbf973c)" style="fill: none; stroke: #1f77b4; stroke-width: 1.5"/>
    <path d="M 232.518248 164.614125 
L 232.518248 35.254125 
" clip-path="url(#p88edbf973c)" style="fill: none; stroke: #1f77b4; stroke-width: 1.5"/>
    <path d="M 233.247787 164.614125 
L 233.247787 35.254125 
" clip-path="url(#p88edbf973c)" style="fill: none; stroke: #1f77b4; stroke-width: 1.5"/>
    <path d="M 233.358295 164.614125 
L 233.358295 35.254125 
" clip-path="url(#p88edbf973c)" style="fill: none; stroke: #1f77b4; stroke-width: 1.5"/>
    <path d="M 233.923736 164.614125 
L 233.923736 35.254125 
" clip-path="url(#p88edbf973c)" style="fill: none; stroke: #1f77b4; stroke-width: 1.5"/>
   </g>
   <g id="line2d_9">
    <path d="M 43.78125 164.614125 
L 221.326705 164.614125 
" clip-path="url(#p88edbf973c)" style="fill: none; stroke-dasharray: 5.55,2.4; stroke-dashoffset: 0; stroke: #000000; stroke-width: 1.5"/>
   </g>
   <g id="patch_3">
    <path d="M 43.78125 177.550125 
L 43.78125 22.318125 
" style="fill: none; stroke: #000000; stroke-width: 0.8; stroke-linejoin: miter; stroke-linecap: square"/>
   </g>
   <g id="patch_4">
    <path d="M 221.326705 177.550125 
L 221.326705 22.318125 
" style="fill: none; stroke: #000000; stroke-width: 0.8; stroke-linejoin: miter; stroke-linecap: square"/>
   </g>
   <g id="patch_5">
    <path d="M 43.78125 177.550125 
L 221.326705 177.550125 
" style="fill: none; stroke: #000000; stroke-width: 0.8; stroke-linejoin: miter; stroke-linecap: square"/>
   </g>
   <g id="patch_6">
    <path d="M 43.78125 22.318125 
L 221.326705 22.318125 
" style="fill: none; stroke: #000000; stroke-width: 0.8; stroke-linejoin: miter; stroke-linecap: square"/>
   </g>
   <g id="text_11">
    <!-- Water Molecule -->
    <g transform="translate(86.242415 16.318125) scale(0.12 -0.12)">
     <defs>
      <path id="DejaVuSans-57" d="M 213 4666 
L 850 4666 
L 1831 722 
L 2809 4666 
L 3519 4666 
L 4500 722 
L 5478 4666 
L 6119 4666 
L 4947 0 
L 4153 0 
L 3169 4050 
L 2175 0 
L 1381 0 
L 213 4666 
z
" transform="scale(0.015625)"/>
      <path id="DejaVuSans-61" d="M 2194 1759 
Q 1497 1759 1228 1600 
Q 959 1441 959 1056 
Q 959 750 1161 570 
Q 1363 391 1709 391 
Q 2188 391 2477 730 
Q 2766 1069 2766 1631 
L 2766 1759 
L 2194 1759 
z
M 3341 1997 
L 3341 0 
L 2766 0 
L 2766 531 
Q 2569 213 2275 61 
Q 1981 -91 1556 -91 
Q 1019 -91 701 211 
Q 384 513 384 1019 
Q 384 1609 779 1909 
Q 1175 2209 1959 2209 
L 2766 2209 
L 2766 2266 
Q 2766 2663 2505 2880 
Q 2244 3097 1772 3097 
Q 1472 3097 1187 3025 
Q 903 2953 641 2809 
L 641 3341 
Q 956 3463 1253 3523 
Q 1550 3584 1831 3584 
Q 2591 3584 2966 3190 
Q 3341 2797 3341 1997 
z
" transform="scale(0.015625)"/>
      <path id="DejaVuSans-74" d="M 1172 4494 
L 1172 3500 
L 2356 3500 
L 2356 3053 
L 1172 3053 
L 1172 1153 
Q 1172 725 1289 603 
Q 1406 481 1766 481 
L 2356 481 
L 2356 0 
L 1766 0 
Q 1100 0 847 248 
Q 594 497 594 1153 
L 594 3053 
L 172 3053 
L 172 3500 
L 594 3500 
L 594 4494 
L 1172 4494 
z
" transform="scale(0.015625)"/>
      <path id="DejaVuSans-4d" d="M 628 4666 
L 1569 4666 
L 2759 1491 
L 3956 4666 
L 4897 4666 
L 4897 0 
L 4281 0 
L 4281 4097 
L 3078 897 
L 2444 897 
L 1241 4097 
L 1241 0 
L 628 0 
L 628 4666 
z
" transform="scale(0.015625)"/>
      <path id="DejaVuSans-6f" d="M 1959 3097 
Q 1497 3097 1228 2736 
Q 959 2375 959 1747 
Q 959 1119 1226 758 
Q 1494 397 1959 397 
Q 2419 397 2687 759 
Q 2956 1122 2956 1747 
Q 2956 2369 2687 2733 
Q 2419 3097 1959 3097 
z
M 1959 3584 
Q 2709 3584 3137 3096 
Q 3566 2609 3566 1747 
Q 3566 888 3137 398 
Q 2709 -91 1959 -91 
Q 1206 -91 779 398 
Q 353 888 353 1747 
Q 353 2609 779 3096 
Q 1206 3584 1959 3584 
z
" transform="scale(0.015625)"/>
      <path id="DejaVuSans-6c" d="M 603 4863 
L 1178 4863 
L 1178 0 
L 603 0 
L 603 4863 
z
" transform="scale(0.015625)"/>
      <path id="DejaVuSans-63" d="M 3122 3366 
L 3122 2828 
Q 2878 2963 2633 3030 
Q 2388 3097 2138 3097 
Q 1578 3097 1268 2742 
Q 959 2388 959 1747 
Q 959 1106 1268 751 
Q 1578 397 2138 397 
Q 2388 397 2633 464 
Q 2878 531 3122 666 
L 3122 134 
Q 2881 22 2623 -34 
Q 2366 -91 2075 -91 
Q 1284 -91 818 406 
Q 353 903 353 1747 
Q 353 2603 823 3093 
Q 1294 3584 2113 3584 
Q 2378 3584 2631 3529 
Q 2884 3475 3122 3366 
z
" transform="scale(0.015625)"/>
      <path id="DejaVuSans-75" d="M 544 1381 
L 544 3500 
L 1119 3500 
L 1119 1403 
Q 1119 906 1312 657 
Q 1506 409 1894 409 
Q 2359 409 2629 706 
Q 2900 1003 2900 1516 
L 2900 3500 
L 3475 3500 
L 3475 0 
L 2900 0 
L 2900 538 
Q 2691 219 2414 64 
Q 2138 -91 1772 -91 
Q 1169 -91 856 284 
Q 544 659 544 1381 
z
M 1991 3584 
L 1991 3584 
z
" transform="scale(0.015625)"/>
     </defs>
     <use xlink:href="#DejaVuSans-57"/>
     <use xlink:href="#DejaVuSans-61" x="92.501953"/>
     <use xlink:href="#DejaVuSans-74" x="153.78125"/>
     <use xlink:href="#DejaVuSans-65" x="192.990234"/>
     <use xlink:href="#DejaVuSans-72" x="254.513672"/>
     <use xlink:href="#DejaVuSans-20" x="295.626953"/>
     <use xlink:href="#DejaVuSans-4d" x="327.414062"/>
     <use xlink:href="#DejaVuSans-6f" x="413.693359"/>
     <use xlink:href="#DejaVuSans-6c" x="474.875"/>
     <use xlink:href="#DejaVuSans-65" x="502.658203"/>
     <use xlink:href="#DejaVuSans-63" x="564.181641"/>
     <use xlink:href="#DejaVuSans-75" x="619.162109"/>
     <use xlink:href="#DejaVuSans-6c" x="682.541016"/>
     <use xlink:href="#DejaVuSans-65" x="710.324219"/>
    </g>
   </g>
  </g>
  <g id="axes_2">
   <g id="patch_7">
    <path d="M 256.835795 177.550125 
L 434.38125 177.550125 
L 434.38125 22.318125 
L 256.835795 22.318125 
L 256.835795 177.550125 
z
" style="fill: none"/>
   </g>
   <g id="matplotlib.axis_3">
    <g id="xtick_3">
     <g id="line2d_10">
      <g>
       <use xlink:href="#m0c422404b6" x="278.8746" y="177.550125" style="stroke: #000000; stroke-width: 0.8"/>
      </g>
     </g>
     <g id="text_12">
      <!-- −20 -->
      <g transform="translate(268.322256 192.148562) scale(0.1 -0.1)">
       <use xlink:href="#DejaVuSans-2212"/>
       <use xlink:href="#DejaVuSans-32" x="83.789062"/>
       <use xlink:href="#DejaVuSans-30" x="147.412109"/>
      </g>
     </g>
    </g>
    <g id="xtick_4">
     <g id="line2d_11">
      <g>
       <use xlink:href="#m0c422404b6" x="318.329146" y="177.550125" style="stroke: #000000; stroke-width: 0.8"/>
      </g>
     </g>
     <g id="text_13">
      <!-- −10 -->
      <g transform="translate(307.776802 192.148562) scale(0.1 -0.1)">
       <use xlink:href="#DejaVuSans-2212"/>
       <use xlink:href="#DejaVuSans-31" x="83.789062"/>
       <use xlink:href="#DejaVuSans-30" x="147.412109"/>
      </g>
     </g>
    </g>
    <g id="xtick_5">
     <g id="line2d_12">
      <g>
       <use xlink:href="#m0c422404b6" x="357.783691" y="177.550125" style="stroke: #000000; stroke-width: 0.8"/>
      </g>
     </g>
     <g id="text_14">
      <!-- 0 -->
      <g transform="translate(354.602441 192.148562) scale(0.1 -0.1)">
       <use xlink:href="#DejaVuSans-30"/>
      </g>
     </g>
    </g>
    <g id="xtick_6">
     <g id="line2d_13">
      <g>
       <use xlink:href="#m0c422404b6" x="397.238237" y="177.550125" style="stroke: #000000; stroke-width: 0.8"/>
      </g>
     </g>
     <g id="text_15">
      <!-- 10 -->
      <g transform="translate(390.875737 192.148562) scale(0.1 -0.1)">
       <use xlink:href="#DejaVuSans-31"/>
       <use xlink:href="#DejaVuSans-30" x="63.623047"/>
      </g>
     </g>
    </g>
    <g id="text_16">
     <!-- E - E$_\mathrm{Fermi}$ (eV) -->
     <g transform="translate(312.108523 205.826687) scale(0.1 -0.1)">
      <use xlink:href="#DejaVuSans-45" transform="translate(0 0.125)"/>
      <use xlink:href="#DejaVuSans-20" transform="translate(63.183594 0.125)"/>
      <use xlink:href="#DejaVuSans-2d" transform="translate(94.970703 0.125)"/>
      <use xlink:href="#DejaVuSans-20" transform="translate(131.054688 0.125)"/>
      <use xlink:href="#DejaVuSans-45" transform="translate(162.841797 0.125)"/>
      <use xlink:href="#DejaVuSans-46" transform="translate(226.982422 -16.28125) scale(0.7)"/>
      <use xlink:href="#DejaVuSans-65" transform="translate(267.246094 -16.28125) scale(0.7)"/>
      <use xlink:href="#DejaVuSans-72" transform="translate(310.3125 -16.28125) scale(0.7)"/>
      <use xlink:href="#DejaVuSans-6d" transform="translate(339.091797 -16.28125) scale(0.7)"/>
      <use xlink:href="#DejaVuSans-69" transform="translate(407.280273 -16.28125) scale(0.7)"/>
      <use xlink:href="#DejaVuSans-20" transform="translate(429.462891 0.125)"/>
      <use xlink:href="#DejaVuSans-28" transform="translate(461.25 0.125)"/>
      <use xlink:href="#DejaVuSans-65" transform="translate(500.263672 0.125)"/>
      <use xlink:href="#DejaVuSans-56" transform="translate(561.787109 0.125)"/>
      <use xlink:href="#DejaVuSans-29" transform="translate(630.195312 0.125)"/>
     </g>
    </g>
   </g>
   <g id="matplotlib.axis_4">
    <g id="ytick_7">
     <g id="line2d_14">
      <g>
       <use xlink:href="#me33e90fe6c" x="256.835795" y="170.494125" style="stroke: #000000; stroke-width: 0.8"/>
      </g>
     </g>
     <g id="text_17">
      <!-- 0.0 -->
      <g transform="translate(233.93267 174.293344) scale(0.1 -0.1)">
       <use xlink:href="#DejaVuSans-30"/>
       <use xlink:href="#DejaVuSans-2e" x="63.623047"/>
       <use xlink:href="#DejaVuSans-30" x="95.410156"/>
      </g>
     </g>
    </g>
    <g id="ytick_8">
     <g id="line2d_15">
      <g>
       <use xlink:href="#me33e90fe6c" x="256.835795" y="142.199388" style="stroke: #000000; stroke-width: 0.8"/>
      </g>
     </g>
     <g id="text_18">
      <!-- 0.2 -->
      <g transform="translate(233.93267 145.998607) scale(0.1 -0.1)">
       <use xlink:href="#DejaVuSans-30"/>
       <use xlink:href="#DejaVuSans-2e" x="63.623047"/>
       <use xlink:href="#DejaVuSans-32" x="95.410156"/>
      </g>
     </g>
    </g>
    <g id="ytick_9">
     <g id="line2d_16">
      <g>
       <use xlink:href="#me33e90fe6c" x="256.835795" y="113.904651" style="stroke: #000000; stroke-width: 0.8"/>
      </g>
     </g>
     <g id="text_19">
      <!-- 0.4 -->
      <g transform="translate(233.93267 117.70387) scale(0.1 -0.1)">
       <use xlink:href="#DejaVuSans-30"/>
       <use xlink:href="#DejaVuSans-2e" x="63.623047"/>
       <use xlink:href="#DejaVuSans-34" x="95.410156"/>
      </g>
     </g>
    </g>
    <g id="ytick_10">
     <g id="line2d_17">
      <g>
       <use xlink:href="#me33e90fe6c" x="256.835795" y="85.609914" style="stroke: #000000; stroke-width: 0.8"/>
      </g>
     </g>
     <g id="text_20">
      <!-- 0.6 -->
      <g transform="translate(233.93267 89.409133) scale(0.1 -0.1)">
       <use xlink:href="#DejaVuSans-30"/>
       <use xlink:href="#DejaVuSans-2e" x="63.623047"/>
       <use xlink:href="#DejaVuSans-36" x="95.410156"/>
      </g>
     </g>
    </g>
    <g id="ytick_11">
     <g id="line2d_18">
      <g>
       <use xlink:href="#me33e90fe6c" x="256.835795" y="57.315178" style="stroke: #000000; stroke-width: 0.8"/>
      </g>
     </g>
     <g id="text_21">
      <!-- 0.8 -->
      <g transform="translate(233.93267 61.114396) scale(0.1 -0.1)">
       <use xlink:href="#DejaVuSans-30"/>
       <use xlink:href="#DejaVuSans-2e" x="63.623047"/>
       <use xlink:href="#DejaVuSans-38" x="95.410156"/>
      </g>
     </g>
    </g>
    <g id="ytick_12">
     <g id="line2d_19">
      <g>
       <use xlink:href="#me33e90fe6c" x="256.835795" y="29.020441" style="stroke: #000000; stroke-width: 0.8"/>
      </g>
     </g>
     <g id="text_22">
      <!-- 1.0 -->
      <g transform="translate(233.93267 32.81966) scale(0.1 -0.1)">
       <use xlink:href="#DejaVuSans-31"/>
       <use xlink:href="#DejaVuSans-2e" x="63.623047"/>
       <use xlink:href="#DejaVuSans-30" x="95.410156"/>
      </g>
     </g>
    </g>
   </g>
   <g id="line2d_20">
    <path d="M 256.835795 170.494125 
L 266.932214 170.419781 
L 267.524032 170.280075 
L 268.119795 169.962467 
L 268.711614 169.347339 
L 269.307377 168.326748 
L 269.899195 166.865325 
L 271.086777 163.031388 
L 272.274359 159.116811 
L 273.461941 155.894041 
L 275.837105 150.942462 
L 276.432868 149.82482 
L 277.62045 148.339346 
L 278.212268 147.532946 
L 279.995614 143.798041 
L 280.587432 143.246293 
L 281.183195 143.10482 
L 281.775014 142.793578 
L 282.370777 141.859851 
L 284.150177 137.346841 
L 284.745941 136.780946 
L 285.337759 136.950714 
L 285.933523 137.276104 
L 286.525341 136.950714 
L 287.121105 135.479388 
L 288.308686 130.669283 
L 288.900505 129.084778 
L 289.496268 128.632062 
L 290.088086 128.872567 
L 290.68385 128.971599 
L 291.275668 128.037872 
L 291.871432 125.661114 
L 293.059014 119.011851 
L 293.650832 117.51223 
L 294.246595 118.403514 
L 296.025995 126.057241 
L 296.621759 126.764609 
L 297.213577 126.764609 
L 297.809341 127.075851 
L 298.401159 128.377409 
L 299.588741 132.862125 
L 300.184505 134.432483 
L 300.776323 135.026672 
L 301.372086 134.98423 
L 302.559668 134.474925 
L 303.151486 133.979767 
L 303.74725 133.116778 
L 304.934832 130.655136 
L 305.52665 129.311136 
L 306.122414 127.655893 
L 306.714232 125.109367 
L 307.309995 121.06322 
L 307.901814 115.276946 
L 309.089395 101.935978 
L 309.685159 98.130336 
L 310.276977 98.314251 
L 310.872741 102.148188 
L 312.060323 113.296314 
L 312.652141 117.342462 
L 313.247905 119.917283 
L 314.435486 123.765367 
L 315.623068 128.632062 
L 316.214886 129.87703 
L 316.81065 129.183809 
L 317.402468 126.368483 
L 318.59005 116.875599 
L 319.777632 107.807136 
L 320.373395 104.60983 
L 320.965214 102.388693 
L 321.560977 100.874925 
L 323.340377 97.606883 
L 325.123723 94.749114 
L 325.715541 92.924104 
L 328.090705 81.889157 
L 328.686468 79.597283 
L 329.278286 75.749199 
L 330.465868 64.502041 
L 331.061632 61.106672 
L 331.65345 61.177409 
L 332.841032 65.704567 
L 333.436795 65.831893 
L 334.028614 64.572778 
L 334.624377 64.035178 
L 335.216195 65.647978 
L 336.403777 72.08503 
L 336.999541 73.711978 
L 337.591359 73.782714 
L 338.187123 73.344146 
L 338.778941 73.471472 
L 339.374705 74.447641 
L 341.154105 78.677704 
L 341.749868 80.74322 
L 342.341686 83.714167 
L 342.93745 87.590546 
L 344.125032 97.451262 
L 347.092014 125.109367 
L 348.279595 134.333451 
L 349.467177 140.742209 
L 353.029923 157.031489 
L 354.217505 162.854546 
L 355.405086 167.24306 
L 356.00085 168.666285 
L 356.592668 169.584025 
L 357.188432 170.098282 
L 357.78025 170.345012 
L 358.967832 170.480626 
L 366.093323 170.493132 
L 367.876668 170.427081 
L 368.468486 170.292666 
L 369.06425 169.967136 
L 369.656068 169.281837 
L 370.251832 168.016921 
L 370.84365 165.947161 
L 371.439414 162.930942 
L 372.626995 154.309536 
L 375.593977 128.53303 
L 377.377323 110.169746 
L 377.969141 106.137746 
L 378.564905 103.775136 
L 379.752486 100.36562 
L 380.344305 97.861536 
L 381.531886 91.070799 
L 382.12765 86.642672 
L 383.90705 69.962925 
L 385.094632 57.30103 
L 386.877977 32.613872 
L 387.469795 29.374125 
L 388.065559 31.128399 
L 389.253141 42.106757 
L 389.844959 45.79922 
L 390.440723 46.888567 
L 391.032541 46.704651 
L 391.628305 46.81783 
L 392.220123 47.68082 
L 392.815886 48.770167 
L 393.407705 49.491683 
L 394.003468 49.576567 
L 394.595286 49.180441 
L 395.19105 49.137999 
L 395.782868 51.415725 
L 396.378632 58.333788 
L 396.97045 70.627851 
L 398.158032 99.50263 
L 398.753795 107.524188 
L 399.345614 108.443767 
L 399.941377 103.110209 
L 400.533195 93.178757 
L 402.316541 56.056062 
L 402.908359 51.132778 
L 403.504123 53.368062 
L 404.095941 61.092525 
L 404.691705 70.542967 
L 405.283523 77.913746 
L 405.879286 80.799809 
L 406.471105 78.352314 
L 407.066868 71.222041 
L 408.25445 51.288399 
L 408.846268 43.903472 
L 409.442032 40.42322 
L 410.03385 40.36663 
L 410.629614 42.347262 
L 411.221432 45.459683 
L 411.817195 49.689746 
L 413.596595 66.199725 
L 414.192359 69.793157 
L 414.784177 72.481157 
L 415.379941 76.38583 
L 415.971759 83.756609 
L 416.567523 95.215978 
L 417.755105 122.633578 
L 418.346923 133.555346 
L 418.942686 141.322251 
L 420.130268 151.536651 
L 421.31785 160.43959 
L 421.909668 164.226841 
L 422.505432 167.036508 
L 423.09725 168.814832 
L 423.693014 169.776995 
L 424.284832 170.224901 
L 424.880595 170.405364 
L 426.659995 170.492728 
L 434.38125 170.494125 
L 434.38125 170.494125 
" clip-path="url(#p360f41d7a7)" style="fill: none; stroke: #1f77b4; stroke-width: 1.5; stroke-linecap: square"/>
   </g>
   <g id="line2d_21">
    <path d="M 256.835795 170.494125 
L 434.38125 170.494125 
" clip-path="url(#p360f41d7a7)" style="fill: none; stroke-dasharray: 5.55,2.4; stroke-dashoffset: 0; stroke: #000000; stroke-width: 1.5"/>
   </g>
   <g id="patch_8">
    <path d="M 256.835795 177.550125 
L 256.835795 22.318125 
" style="fill: none; stroke: #000000; stroke-width: 0.8; stroke-linejoin: miter; stroke-linecap: square"/>
   </g>
   <g id="patch_9">
    <path d="M 434.38125 177.550125 
L 434.38125 22.318125 
" style="fill: none; stroke: #000000; stroke-width: 0.8; stroke-linejoin: miter; stroke-linecap: square"/>
   </g>
   <g id="patch_10">
    <path d="M 256.835795 177.550125 
L 434.38125 177.550125 
" style="fill: none; stroke: #000000; stroke-width: 0.8; stroke-linejoin: miter; stroke-linecap: square"/>
   </g>
   <g id="patch_11">
    <path d="M 256.835795 22.318125 
L 434.38125 22.318125 
" style="fill: none; stroke: #000000; stroke-width: 0.8; stroke-linejoin: miter; stroke-linecap: square"/>
   </g>
   <g id="text_23">
    <!-- Carbon Diamond -->
    <g transform="translate(294.994773 16.318125) scale(0.12 -0.12)">
     <defs>
      <path id="DejaVuSans-43" d="M 4122 4306 
L 4122 3641 
Q 3803 3938 3442 4084 
Q 3081 4231 2675 4231 
Q 1875 4231 1450 3742 
Q 1025 3253 1025 2328 
Q 1025 1406 1450 917 
Q 1875 428 2675 428 
Q 3081 428 3442 575 
Q 3803 722 4122 1019 
L 4122 359 
Q 3791 134 3420 21 
Q 3050 -91 2638 -91 
Q 1578 -91 968 557 
Q 359 1206 359 2328 
Q 359 3453 968 4101 
Q 1578 4750 2638 4750 
Q 3056 4750 3426 4639 
Q 3797 4528 4122 4306 
z
" transform="scale(0.015625)"/>
      <path id="DejaVuSans-62" d="M 3116 1747 
Q 3116 2381 2855 2742 
Q 2594 3103 2138 3103 
Q 1681 3103 1420 2742 
Q 1159 2381 1159 1747 
Q 1159 1113 1420 752 
Q 1681 391 2138 391 
Q 2594 391 2855 752 
Q 3116 1113 3116 1747 
z
M 1159 2969 
Q 1341 3281 1617 3432 
Q 1894 3584 2278 3584 
Q 2916 3584 3314 3078 
Q 3713 2572 3713 1747 
Q 3713 922 3314 415 
Q 2916 -91 2278 -91 
Q 1894 -91 1617 61 
Q 1341 213 1159 525 
L 1159 0 
L 581 0 
L 581 4863 
L 1159 4863 
L 1159 2969 
z
" transform="scale(0.015625)"/>
      <path id="DejaVuSans-6e" d="M 3513 2113 
L 3513 0 
L 2938 0 
L 2938 2094 
Q 2938 2591 2744 2837 
Q 2550 3084 2163 3084 
Q 1697 3084 1428 2787 
Q 1159 2491 1159 1978 
L 1159 0 
L 581 0 
L 581 3500 
L 1159 3500 
L 1159 2956 
Q 1366 3272 1645 3428 
Q 1925 3584 2291 3584 
Q 2894 3584 3203 3211 
Q 3513 2838 3513 2113 
z
" transform="scale(0.015625)"/>
      <path id="DejaVuSans-64" d="M 2906 2969 
L 2906 4863 
L 3481 4863 
L 3481 0 
L 2906 0 
L 2906 525 
Q 2725 213 2448 61 
Q 2172 -91 1784 -91 
Q 1150 -91 751 415 
Q 353 922 353 1747 
Q 353 2572 751 3078 
Q 1150 3584 1784 3584 
Q 2172 3584 2448 3432 
Q 2725 3281 2906 2969 
z
M 947 1747 
Q 947 1113 1208 752 
Q 1469 391 1925 391 
Q 2381 391 2643 752 
Q 2906 1113 2906 1747 
Q 2906 2381 2643 2742 
Q 2381 3103 1925 3103 
Q 1469 3103 1208 2742 
Q 947 2381 947 1747 
z
" transform="scale(0.015625)"/>
     </defs>
     <use xlink:href="#DejaVuSans-43"/>
     <use xlink:href="#DejaVuSans-61" x="69.824219"/>
     <use xlink:href="#DejaVuSans-72" x="131.103516"/>
     <use xlink:href="#DejaVuSans-62" x="172.216797"/>
     <use xlink:href="#DejaVuSans-6f" x="235.693359"/>
     <use xlink:href="#DejaVuSans-6e" x="296.875"/>
     <use xlink:href="#DejaVuSans-20" x="360.253906"/>
     <use xlink:href="#DejaVuSans-44" x="392.041016"/>
     <use xlink:href="#DejaVuSans-69" x="469.042969"/>
     <use xlink:href="#DejaVuSans-61" x="496.826172"/>
     <use xlink:href="#DejaVuSans-6d" x="558.105469"/>
     <use xlink:href="#DejaVuSans-6f" x="655.517578"/>
     <use xlink:href="#DejaVuSans-6e" x="716.699219"/>
     <use xlink:href="#DejaVuSans-64" x="780.078125"/>
    </g>
   </g>
  </g>
 </g>
 <defs>
  <clipPath id="p88edbf973c">
   <rect x="43.78125" y="22.318125" width="177.545455" height="155.232"/>
  </clipPath>
  <clipPath id="p360f41d7a7">
   <rect x="256.835795" y="22.318125" width="177.545455" height="155.232"/>
  </clipPath>
 </defs>
</svg>
