<?xml version="1.0" encoding="UTF-8"?>
<svg id="Layer_1" xmlns="http://www.w3.org/2000/svg" version="1.1" viewBox="0 0 595.28 355.96">
  <!-- Generator: Adobe Illustrator 29.0.1, SVG Export Plug-In . SVG Version: 2.1.0 Build 192)  -->
  <defs>
    <style>
      .st0, .st1, .st2, .st3 {
        stroke-miterlimit: 10;
      }

      .st0, .st1, .st3 {
        fill: none;
      }

      .st0, .st2, .st3 {
        stroke: #231f20;
      }

      .st4, .st5, .st6, .st7, .st8 {
        fill: #231f20;
      }

      .st1 {
        stroke: #ed1c24;
      }

      .st5 {
        font-size: 21px;
      }

      .st5, .st6, .st7, .st8, .st9 {
        font-family: ArialMT, Arial;
      }

      .st6 {
        font-size: 20px;
      }

      .st7 {
        font-size: 15px;
      }

      .st8 {
        font-size: 18px;
      }

      .st10, .st9 {
        fill: #ed1c24;
      }

      .st2 {
        fill: #020202;
      }

      .st11 {
        fill: #fff;
      }

      .st3 {
        stroke-width: 1.5px;
      }

      .st9 {
        font-size: 13px;
      }
    </style>
  </defs>
  <path class="st2" d="M587.03,325.67l-147.3-.21.02-14.94h-1.69s0-.54,0-.54h1.69s.05-32.23.05-32.23h-1.69s0-.54,0-.54h1.69s.05-32.23.05-32.23h-1.69s0-.54,0-.54h1.69s.05-32.41.05-32.41h-1.69s0-.54,0-.54h1.69s.05-32.23.05-32.23h-1.69s0-.54,0-.54h1.69s.05-32.23.05-32.23h-1.69s0-.54,0-.54h1.69s.05-32.23.05-32.23h-1.69s0-.54,0-.54h1.69s.05-32.41.05-32.41h-1.69s0-.54,0-.54h1.69s.05-32.23.05-32.23h-1.69s0-.54,0-.54h1.69s.02-14.94.02-14.94h5.66s0-2.51,0-2.51h.36s0,2.52,0,2.52l19.03.03v-2.52s.36,0,.36,0v2.52s18.91.03,18.91.03v-2.52s.36,0,.36,0v2.52s19.03.03,19.03.03v-2.52s.36,0,.36,0v2.52s18.91.03,18.91.03v-2.52s.36,0,.36,0v2.52s18.91.03,18.91.03v-2.52s.36,0,.36,0v2.52s19.03.03,19.03.03v-2.52s.36,0,.36,0v2.52s18.91.03,18.91.03v-2.52s.36,0,.36,0v2.52s6.02,0,6.02,0l-.42,292.94ZM586.67,325.13l.42-291.86-146.57-.21-.42,291.86,146.57.21Z"/>
  <path class="st4" d="M500.51,143.25v.68s-7.31,1.59-7.31,1.59c-.12.03.08.83-.43,1.02-1.55.59-3.95.16-5.33,1.48-.25.24-.32.63-.62.83-.86.56-2.42.35-3.36.74-.28.12-.49.67-.76.94-1.17,1.13-2.37.78-3.5,1.38-.28.15-.16.53-.33.81-.4.64-2.93,1.17-3.58,1.55-.12.12-.06.5-.12.71-.13.45-2.06.94-2.52,1.19-.24.13-.68.34-.86.59-.21.29-.21.74-.34.86-.5.47-1.74.37-2.34.91-.35.31-.7,1.11-1.17,1.45-.53.38-1.42.42-1.82.78-.14.13-.11.61-.4.92-.58.61-1.72.99-2.39,1.35-.16,1.47-1.24,1.28-1.92,1.75-.54.37-.89,1.2-1.37,1.62-.4.35-.94.4-1.29.71-.24.21-.36.66-.58.91-.5.57-1.36.86-1.89,1.41-3.02,3.09-6.11,5.93-9.13,9-.45.46-.93.9-1.41,1.29-.24,1.37.67,1.54,1.2,2.12,2.25,2.46,4.6,4.66,6.9,6.96,1.15,1.16,3.4,2.56,4.34,3.75.2.26.25.62.43.82.34.37,1.06.41,1.45.78s.77,1.19,1.29,1.58c.47.35,1.49.48,1.76,1.11.08.18.06.51.16.63.4.51,2.04.83,2.55,1.56.15.21.1.58.23.73.34.39,1.35.45,1.81.79.42.31.99,1.41,1.28,1.61.53.37,1.87.35,2.27.92.12.17.17.52.29.71.6.93,3.21,1.21,3.38,1.76.07.21,0,.58.11.72.42.54,3.38.98,3.63,1.68.07.2.06.52.1.75,1.15.29,2.89.39,3.86,1.53.19.22.3.74.38.78.97.47,2.58.17,3.53.75.34.21.46.64.77.92,1.54,1.38,3.89.7,5.53,1.67.07.2.01.63.05.7.09.16,2.21.62,2.54.7,1.48.34,2.98.49,4.46.73.45.15.1.87.81,1.03,2.79.63,5.75.61,8.55,1.26.86.2,1.67.92,2.39,1.06,3.38.66,7.13.2,10.55.71l7.75.9,25.66,1.65c.32.26.4.78.04,1.06-.42.34-1.85.08-2.42.12-11.04.72-22.11,1.8-33.15,2.76-.78.07-1.57.33-2.37.17l-.24.89-6.89,1.4c.14.43.12.83-.17,1.01l-4.8,1.09.4.79-.16.42-3.92.89c1.39,2.31-1.51,1.79-2.29,2.1.04,2.08-1,2.04-1.89,2.28.71,1.42-1.26,1.87-1.79,2.1-.09.52.32.35.39.82.04.26-.02.44-.13.59-.32.44-1.78.61-2.25.87.15.41.52.29.71.78.42,1.14-1.52,1.23-1.9,1.32.52,1.93.05,1.94-.9,2.28-.03.29.25.19.3.44.14.77-1.17,1.56-1.49,1.66.07.42.44.33.55.7.31,1.02-1.3,1.31-1.65,1.41-.04.46.29.66.41.96.34.91-.66,1.13-1.01,1.14.73,1.33-.43,1.59-.9,2.37,1.26.94-.09,1.77-.8,1.84.33,1.07.29,2.03-.5,2.11.88,1.14-.04,1.6-.69,1.94l.19,1.63-.7.47c.89,1.32-.55,1.6-.61,2.05-.09.75.65,1.61-.49,1.99-.02.3.23.16.29.45.19.98-.72,1.14-.79,1.31-.03.07.13,1-.07,1.7-.17.6-.48.13-.14,1.51l-.59.64.16.88c-.04.42-.42.5-.51.87-.2.77-.34,2.39-.47,3.21-.05.31-.28.45-.33.64s.09.58.03.94c-.05.31-.34.5-.36.76-.02.22.11.51.06.82s-.33.47-.37.78c-.03.22.08.49.04.76-.05.32-.29.53-.34.82-1.27,7.47-2.2,15.59-3.49,23.04-.19,1.1-.35,1.49-.98,1.96-.75.55-3.62.89-4.6,1.01-3.6.45-7.34.5-10.95.68-.6.03-.92.72-.84-1.05,1.11-.16,2.23-.08,3.34-.16,1.85-.14,3.72-.36,5.57-.53,2.03-.19,5.04-.04,6.96-.88.25-.11.47-.28.66-.59.66-3.53,1.06-7.26,1.61-10.87.66-4.31,1.43-8.74,2.04-12.92.05-.33.31-.58.33-.8s-.11-.51-.06-.82.34-.49.36-.76c.02-.22-.11-.51-.06-.82s.34-.49.36-.76c.02-.22-.11-.51-.06-.82s.31-.45.37-.78c.12-.75.28-1.36.37-1.98.07-.42.02-.86.09-1.25.13-.71.58-.22.17-1.62l.59-.65c-.5-1.34.38-1.45.49-2.05.13-.79-.4-1.34.41-2.07-.71-.96.08-1.36.6-1.67-.31-.71-.05-2.05.5-2.11-.14-.41-.52-.4-.39-1.11l.85-.81c-.08-.89.03-1.99.64-2.11-.19-.43-.56-.47-.35-1.23l1.15-.7c-.37-1.45-.58-1.89.5-2.11-1.06-1.5.72-1.65.9-2.37-1.41-1.15.04-1.65.8-1.84l-.05-1.76.75-.61-.29-.37c-.19-.96,1.11-1.38,1.49-1.65-1.71-2,.62-1.58,1.2-2.19.23-.24-.29-.74-.35-.97-.28-1.08,1.17-1.06,1.55-1.22l-.2-.28c-.15-1.12.98-1.9,1.5-2,0-.35-.31-.07-.39-.45-.05-.23-.01-.51.09-.69.26-.44,1.71-.66,2.09-1.04.05-.05.13-.23.1-.26-.43.12-.79-.47-.5-1.15l2.79-.78c.06-.59-.5-.41-.59-1-.04-.28.05-.55.19-.67.56-.48,2.2-.36,2.89-.61-.29-2.66,2.01-1.94,2.99-2.28l-.2-.61.23-.48,4.35-1.36-.06-.7.45-.45c2.46-.52,4.96-.71,7.42-1.31.56-.14.25-.87.71-1.03,5.88-.45,11.74-.94,17.61-1.74l10.8-.68c.02-.31-.23-.17-.35-.17-.53-.04-1.07.04-1.6,0-.24-.02-.45-.18-.69-.19-7.94-.5-15.86-1.07-23.79-1.78-2.3-.2-4.66-.24-6.96-.55-.95-.13-1.64-.79-2.5-1.04-3.08-.88-6.51-.74-9.63-1.45-.5-.14-.33-.52-.48-.82s-3.28-.64-3.8-.76c-.68-.15-1.39-.34-2.07-.56-.58-.18-1.37-.07-1.53-1.21-1.6-.54-3.72-.23-5.17-1.55-.23-.21-.47-.76-.7-.87-.9-.43-2.24-.29-3.22-.65-.55-.2-1.01-1.26-1.76-1.63-1.04-.52-2.29-.36-3.25-1.12l-.11-.72-3.45-1.43c-.39-.32-.21-.84-.29-.99-.06-.11-1.35-.44-1.62-.56-.31-.15-1.26-.62-1.47-.87-.17-.19-.1-.6-.34-.85-.44-.44-1.53-.38-2.05-.78-.39-.31-.75-1.2-1.3-1.57-.49-.33-1.79-.51-2.06-1.11-.08-.18-.06-.5-.16-.63-.5-.67-2.05-.9-2.52-1.49-.22-.27-.16-.72-.37-.93-.28-.29-1.04-.42-1.46-.75-.49-.38-.85-1.16-1.23-1.52-.4-.38-1.04-.4-1.45-.79-.26-.24-.39-.72-.63-.99-.99-1.09-2.71-2.24-3.81-3.27-2.38-2.23-4.69-4.75-7.02-7.09-.97-.98-2.19-1.17-1.78-3.73.08-.48,1.44-1.6,1.78-1.94,2.24-2.25,4.49-4.54,6.74-6.72.83-.8,1.57-1.45,2.39-2.28.5-.51,1.39-.82,1.83-1.34.22-.26.26-.7.48-.92.34-.33,1-.39,1.39-.71.47-.38.91-1.23,1.46-1.65.35-.26,1.15-.46,1.37-.74.18-.22.12-.63.38-.91.56-.59,1.78-.75,2.4-1.39.24-.26.19-.74.44-.99.38-.39,1.46-.48,1.99-.87.47-.34.85-1.24,1.23-1.52.54-.4,1.38-.33,1.9-.69.29-.2.49-.86,1.07-1.28.67-.49,2.03-.67,2.45-1.08.15-.15-.08-.64.36-.98.49-.37,3.35-1.11,3.47-1.33.07-.12-.02-.92.19-1.03,1.15-.53,3.18-.38,4.14-1.6.18-.23.2-.62.46-.77.97-.6,2.64-.28,3.62-.81.18-.1.32-.59.54-.8,1.38-1.31,3.52-.96,5.04-1.48.41-.14.25-.55.39-.79.41-.71,6.28-1.4,7.24-1.62-.07-.89.25-.93.66-1.03,3.08-.7,6.62-.45,9.64-1.43.49-.16,1.04-.74,1.51-.85,1.04-.24,2.23-.09,3.28-.19,8.97-.81,17.99-1.68,26.97-2.25,1.05-.07,2.1.15,3.14-.17l-27.8-2.66-.23-.89-7.9-1.49c-.61-.34-.06-1.11-.09-1.15-1.24-.18-2.48-.42-3.68-.97-.48-.22-1.13-.18-.94-1.33l-2.37-.56c-.45-.25-.56-1.77-.73-1.87-.47-.14-2.72-.24-2.81-1.02-.08-.68.46-.62.58-1.11-.46-.35-2.75-.51-2.87-1.17-.04-.2-.03-.41.04-.59.12-.36.5-.16.55-.52-.52-.41-1.65-.48-2.08-.98-.14-.16-.24-.33-.19-.66.07-.52.44-.29.49-.64-.64.06-2.05-.95-1.39-2.28-.35-.07-1.38-.14-1.55-.7-.17-.73.38-.95.55-1.4l-1.94-.88c-.08-.22-.08-.49,0-.71.15-.42.63-.11.55-.69-.33-.16-1.72-.72-1.45-1.59l.35-.52c-.82-.09-1.08-.57-.8-2.01l-.09-.19c-.78-.25-2.05-.83-.7-1.93l-1.15-1.14c-.2-.56.25-1.04.15-1.23-.85-.07-.84-.77-.4-1.85-.02-.43-1.4-.39-1.18-1.55l.39-.64c-.54-.06-.89-1.42-.49-2.11-.35-.05-1.27-.57-.95-1.42.08-.2.35-.05.25-.51-.62.04-.46-1.99-.5-2.09-.12-.31-1.35-.48-.49-1.69l-.48-.74c-.06-.35.09-.7.1-1.03,0-.89-1.02-.92-.54-2.19l-.54-.81c.41-1.1-.1-1.02-.19-1.59-.06-.39.01-.84-.06-1.29-.03-.19-.36-1.76-.4-1.92-.06-.23-.29-.38-.33-.66-.05-.31.09-.6.07-.82-.02-.26-.31-.45-.36-.76-.06-.41.09-.74.06-1s-.3-.43-.35-.76c-.25-1.56-.32-3.28-.78-4.75l-3.03-20.58c-.1-.22-.63-.64-.8-.7-3.26-1.01-7.49-1.01-10.84-1.26-1.64-.12-3.3-.03-4.92-.36v-1.05s11.49.72,11.49.72c1.2.6,4.95.17,5.66,1.95.89,5.84,1.6,11.77,2.55,17.58.3,1.87.7,3.73,1.03,5.53.16.85.22,1.74.34,2.55.04.26.29.49.34.82s-.06.58-.04.77c.03.29.3.44.35.76.23,1.43.42,3.41.76,4.79.07.31.5.7.53,1l-.18.68.58.91-.18.82c.3.49.44.89.48,1.63.01.21-.1.54-.08.57.19.52,1.22.27.59,1.95l.58.64-.18,1.18.88,1.11-.29.94c.91.26.69.87.5,2.1.3.26.96.48,1.05,1.06l-.05.45-.31.43c.8.17.83.97.49,2.11l1.25.7.03.86-.33.19-.06.36c.5.43,1.37,1.03.79,2.11.98.23,1.46.65.59,2.11.35.26,1.94.44,1.64,1.41l-.55.7c.58.45,2.06.91,1.19,2.28.92-.01,1.4.46.89,2.11.76.13,3.13.76,1.29,1.94-.02.06.06.23.1.26.4.35,1.85.45,2.09.87.41.71-.23.92-.4,1.32.67.38,2.45.5,1.99,2.29.73-.11,2.02.49,1.69,2.11l2.78.72c.11.66-.23.92-.39,1.39l3.96.92.08.68-.26.43.17.22,4.67,1.15c.19.44.08.63-.08,1.01l6.89,1.28.33.85,9.15.7,6.56.89c3.39.25,6.77.45,10.15.71,2.91.23,5.84.5,8.75.73,1.01.08,2.19-.14,3.19.18.24.08.44.46.31.88-.23.57-2.48.3-3,.33-10.47.59-20.97,1.33-31.45,2.25-3.88.34-8.01.15-11.76,1.72l-9.4,1.41Z"/>
  <path d="M432.04,32.44v296.02l-.72-2.87h-168.22l-.36,2.88-.36-2.88h-83.39l-.36,2.88-.36-2.88H33.06l-.72,2.87v-17.96l-2.88-.36,2.88-.36v-32.33l-2.88-.36,2.88-.36v-31.61l-2.88-.36,2.88-.36v-32.33l-2.88-.36,2.88-.36v-32.33l-2.88-.36,2.88-.36v-31.61l-2.88-.36,2.88-.36v-32.33l-2.88-.36,2.88-.36v-32.33l-2.88-.36,2.88-.36v-31.61l-2.88-.36,2.88-.36v-15.09h399.7ZM178.28,33.16H33.06v11.14l1.19.97c28.05.67,52.32,17.51,72.87,34.95,12.52,10.63,23.61,22.97,35.92,33.79,9.98,8.76,21.31,18.84,35.24,19.75V33.16ZM262.38,33.16h-83.39v100.59c27.24.14,51.14,15.84,71.18,32.68,3.25,2.74,6.83,6.9,10.05,9.36.72.55.91,1.39,2.16,1.07V33.16ZM431.32,33.16h-168.22v143.7c31.1-29.12,57.02-63.48,88.41-92.34,19.52-17.95,45.12-36.35,72.26-39.14,2.52-.26,5.74.89,7.54-1.08v-11.14ZM33.06,47.17v263.33c39.13-.45,68.63-30.43,95.62-54.95,14.34-13.03,28.91-31.63,49.59-33.43l-.67-87.34c-21.74-2.51-37.21-22.75-52.51-36.61-20.94-18.96-43.95-41.09-71.9-48.85-6.2-1.72-12.04-2.39-18.4-3.2l-1.73,1.05ZM431.32,310.5V47.17l-1.82-1.12c-31.03,1.67-57.45,21.06-79.43,41.34-30.24,27.91-55.46,61.65-85.57,89.79l-.73,2.14c8.42,7.43,16.43,15.84,24.14,24.11,24.85,26.64,48.47,56.12,76.93,79.03,18.71,15.06,41.63,28.68,66.48,28.04ZM178.99,222.12c32.91-.32,59.75-22.34,82.65-43.47-22.54-21.24-50.04-43.49-82.65-43.47v86.94ZM262.38,324.87v-145.14c-23.37,21.29-50.06,42.97-83.39,43.83v101.31h83.39ZM431.32,311.93c-4.16.23-8.27-.27-12.37-.93-51.57-8.21-100.17-73.48-134.63-109.73-6.81-7.17-14.05-14.03-21.22-20.83v144.42h168.22v-12.93ZM178.28,223.56c-9.21-.09-17.28,5.2-24.37,10.49-10.5,7.84-19.18,17.78-28.82,26.52-25.93,23.51-54.66,50.73-92.03,51.36v12.93h145.21v-101.31Z"/>
  <path class="st11" d="M431.32,310.5c-24.85.64-47.76-12.98-66.48-28.04-28.46-22.91-52.07-52.39-76.93-79.03-7.72-8.27-15.72-16.68-24.14-24.11l.73-2.14c30.11-28.13,55.33-61.88,85.57-89.79,21.98-20.29,48.4-39.67,79.43-41.34l1.82,1.12v263.33Z"/>
  <path class="st11" d="M33.06,47.17l1.73-1.05c6.36.81,12.2,1.48,18.4,3.2,27.95,7.76,50.96,29.89,71.9,48.85,15.3,13.86,30.77,34.1,52.51,36.61l.67,87.34c-20.67,1.8-35.25,20.4-49.59,33.43-26.99,24.52-56.5,54.5-95.62,54.95V47.17Z"/>
  <path class="st11" d="M431.32,311.93v12.93h-168.22v-144.42c7.17,6.8,14.41,13.66,21.22,20.83,34.45,36.25,83.06,101.52,134.63,109.73,4.1.65,8.21,1.15,12.37.93Z"/>
  <path class="st11" d="M431.32,33.16v11.14c-1.8,1.97-5.02.82-7.54,1.08-27.15,2.79-52.74,21.19-72.26,39.14-31.39,28.85-57.31,63.22-88.41,92.34V33.16h168.22Z"/>
  <path class="st11" d="M262.38,324.87h-83.39v-101.31c33.33-.86,60.02-22.54,83.39-43.83v145.14Z"/>
  <path class="st11" d="M262.38,33.16v143.7c-1.26.31-1.44-.52-2.16-1.07-3.22-2.46-6.79-6.62-10.05-9.36-20.04-16.84-43.94-32.54-71.18-32.68V33.16h83.39Z"/>
  <path class="st11" d="M178.28,223.56v101.31H33.06v-12.93c37.37-.63,66.1-27.85,92.03-51.36,9.64-8.74,18.32-18.68,28.82-26.52,7.09-5.3,15.16-10.58,24.37-10.49Z"/>
  <text/>
  <path class="st11" d="M178.99,222.12v-86.94c32.61-.02,60.11,22.23,82.65,43.47-22.91,21.13-49.75,43.15-82.65,43.47Z"/>
  <text class="st8" transform="translate(81.44 20.54)"><tspan x="0" y="0">Band Structure of Monolayer Graphene</tspan></text>
  <text class="st6" transform="translate(497.95 20.36)"><tspan x="0" y="0">DOS</tspan></text>
  <text class="st7" transform="translate(18.42 223.56) rotate(-90.3)"><tspan x="0" y="0">Energy (eV)</tspan></text>
  <text class="st5" transform="translate(29.46 348.68)"><tspan x="0" y="0">Γ</tspan></text>
  <text class="st5" transform="translate(172.57 348.68)"><tspan x="0" y="0">M</tspan></text>
  <text class="st5" transform="translate(425.13 348.68)"><tspan x="0" y="0">Γ</tspan></text>
  <text class="st5" transform="translate(258.48 348.68)"><tspan x="0" y="0">K</tspan></text>
  <text class="st7" transform="translate(72.29 181.64)"><tspan x="0" y="0">Saddle points</tspan></text>
  <g>
    <line class="st4" x1="163.69" y1="161.5" x2="174.32" y2="138.88"/>
    <g>
      <line class="st0" x1="163.69" y1="161.5" x2="173.81" y2="139.96"/>
      <path class="st4" d="M175.24,148.19c-.27.04-.52-.16-.56-.43l-.97-7.59-6.46,4.09c-.23.15-.54.08-.69-.15-.15-.23-.08-.54.15-.69l7.13-4.51c.14-.09.33-.1.48-.03.15.07.26.22.28.39l1.07,8.37c.01.1,0,.19-.04.28-.07.15-.21.26-.39.28Z"/>
    </g>
  </g>
  <g>
    <line class="st4" x1="163.69" y1="192.97" x2="174.32" y2="218.53"/>
    <g>
      <line class="st0" x1="163.69" y1="192.97" x2="173.86" y2="217.42"/>
      <path class="st4" d="M166.8,212.96c.16-.23.47-.28.7-.12l6.27,4.38,1.32-7.54c.05-.27.31-.45.58-.41.27.05.45.31.41.58l-1.45,8.31c-.03.17-.14.31-.3.38-.16.07-.34.05-.48-.05l-6.92-4.83c-.08-.06-.14-.13-.18-.22-.06-.15-.05-.33.05-.48Z"/>
    </g>
  </g>
  <g>
    <line class="st4" x1="404.73" y1="165.02" x2="426.18" y2="54.55"/>
    <g>
      <line class="st0" x1="404.73" y1="165.02" x2="425.95" y2="55.73"/>
      <path class="st4" d="M429.36,63.35c-.26.1-.55-.03-.65-.28l-2.8-7.12-5.26,5.55c-.19.2-.51.21-.71.02s-.21-.51-.02-.71l5.8-6.12c.12-.12.29-.18.46-.15.17.03.31.15.37.31l3.09,7.85c.04.09.04.19.03.28-.03.16-.14.31-.31.37Z"/>
    </g>
  </g>
  <g>
    <line class="st4" x1="404.73" y1="190.08" x2="426.18" y2="303.69"/>
    <g>
      <line class="st0" x1="404.73" y1="190.08" x2="425.96" y2="302.51"/>
      <path class="st4" d="M419.97,296.69c.2-.19.52-.18.71.02l5.24,5.58,2.84-7.1c.1-.26.39-.38.65-.28.26.1.38.4.28.65l-3.13,7.83c-.06.16-.2.27-.37.31-.17.03-.34-.02-.46-.15l-5.77-6.15c-.07-.07-.11-.16-.13-.25-.03-.16.02-.34.15-.46Z"/>
    </g>
  </g>
  <text class="st7" transform="translate(292.76 181.64)"><tspan x="0" y="0">Extremum points</tspan></text>
  <g>
    <line class="st4" x1="513.59" y1="306.74" x2="486.61" y2="306.74"/>
    <g>
      <line class="st1" x1="513.59" y1="306.74" x2="487.81" y2="306.74"/>
      <path class="st10" d="M494.65,301.94c.15.23.08.54-.15.69l-6.45,4.11,6.45,4.11c.23.15.3.46.15.69-.15.23-.46.3-.69.15l-7.11-4.53c-.14-.09-.23-.25-.23-.42s.09-.33.23-.42l7.11-4.53c.08-.05.18-.08.27-.08.17,0,.33.08.42.23Z"/>
    </g>
  </g>
  <g>
    <line class="st4" x1="581.34" y1="223.56" x2="561.07" y2="223.56"/>
    <g>
      <line class="st1" x1="581.34" y1="223.56" x2="562.27" y2="223.56"/>
      <path class="st10" d="M569.1,218.76c.15.23.08.54-.15.69l-6.45,4.11,6.45,4.11c.23.15.3.46.15.69s-.46.3-.69.15l-7.11-4.53c-.14-.09-.23-.25-.23-.42s.09-.33.23-.42l7.11-4.53c.08-.05.18-.08.27-.08.17,0,.33.08.42.23Z"/>
    </g>
  </g>
  <g>
    <line class="st4" x1="583.62" y1="136.88" x2="563.34" y2="136.88"/>
    <g>
      <line class="st1" x1="583.62" y1="136.88" x2="564.54" y2="136.88"/>
      <path class="st10" d="M571.38,132.08c.15.23.08.54-.15.69l-6.45,4.11,6.45,4.11c.23.15.3.46.15.69s-.46.3-.69.15l-7.11-4.53c-.14-.09-.23-.25-.23-.42s.09-.33.23-.42l7.11-4.53c.08-.05.18-.08.27-.08.17,0,.33.08.42.23Z"/>
    </g>
  </g>
  <g>
    <line class="st10" x1="506.89" y1="52.47" x2="486.61" y2="52.47"/>
    <g>
      <line class="st1" x1="506.89" y1="52.47" x2="487.81" y2="52.47"/>
      <path class="st10" d="M494.65,47.67c.15.23.08.54-.15.69l-6.45,4.11,6.45,4.11c.23.15.3.46.15.69s-.46.3-.69.15l-7.11-4.53c-.14-.09-.23-.25-.23-.42s.09-.33.23-.42l7.11-4.53c.08-.05.18-.08.27-.08.17,0,.33.08.42.23Z"/>
    </g>
  </g>
  <text class="st9" transform="translate(453.45 184.62)"><tspan x="0" y="0">Van Hove Singularities</tspan></text>
  <rect class="st3" x="32.08" y="32.44" width="399.24" height="292.43"/>
</svg>